<svg width="14" height="8" viewBox="0 0 14 8" fill="none" xmlns="http://www.w3.org/2000/svg">
<path d="M13.593 0.194858C14.0376 0.522373 14.1326 1.14837 13.8051 1.59306C13.5507 1.93847 13.2963 2.26681 13.0731 2.55277C12.6276 3.12364 12.0143 3.88817 11.3479 4.65563C10.6859 5.41813 9.95185 6.20639 9.26656 6.81189C8.92506 7.11363 8.57211 7.39112 8.22794 7.5986C7.91122 7.78954 7.47602 8 6.9999 8C6.52377 8 6.08854 7.78954 5.77182 7.5986C5.42765 7.39112 5.0747 7.11363 4.7332 6.81189C4.04791 6.20639 3.31387 5.41813 2.65183 4.65563C1.98548 3.88817 1.37216 3.12364 0.926641 2.55277C0.703471 2.26681 0.449024 1.93847 0.194632 1.59307C-0.132882 1.14837 -0.0378908 0.522373 0.406803 0.194858C0.585561 0.0632034 0.793625 -0.000168223 0.999821 4.85979e-06L6.99988 4.59752e-06L12.9999 4.33525e-06C13.2061 -0.000168766 13.4142 0.0632029 13.593 0.194858Z" fill="#141B34"/>
</svg>
