<svg width="40" height="40" viewBox="0 0 40 40" fill="none" xmlns="http://www.w3.org/2000/svg">
<rect x="2" y="2.00009" width="36" height="36" rx="18" fill="#DEDEFA"/>
<rect x="2" y="2.00009" width="36" height="36" rx="18" stroke="#EFEFFD" stroke-width="4"/>
<path opacity="0.4" d="M23.2 14.4001C23.2 13.6546 23.2 13.2818 23.3217 12.9878C23.4841 12.5958 23.7956 12.2843 24.1877 12.1219C24.4817 12.0001 24.8544 12.0001 25.6 12.0001C26.3455 12.0001 26.7182 12.0001 27.0122 12.1219C27.4043 12.2843 27.7158 12.5958 27.8782 12.9878C28 13.2818 28 13.6546 28 14.4001V17.6001C28 18.3456 28 18.7184 27.8782 19.0124C27.7158 19.4044 27.4043 19.7159 27.0122 19.8783C26.7182 20.0001 26.3455 20.0001 25.6 20.0001C24.8544 20.0001 24.4817 20.0001 24.1877 19.8783C23.7956 19.7159 23.4841 19.4044 23.3217 19.0124C23.2 18.7184 23.2 18.3456 23.2 17.6001V14.4001Z" stroke="#141ED2" stroke-width="1.5"/>
<path d="M23.2 25.6001C23.2 24.8546 23.2 24.4818 23.3217 24.1878C23.4841 23.7958 23.7956 23.4843 24.1877 23.3219C24.4817 23.2001 24.8544 23.2001 25.6 23.2001C26.3455 23.2001 26.7182 23.2001 27.0122 23.3219C27.4043 23.4843 27.7158 23.7958 27.8782 24.1878C28 24.4818 28 24.8546 28 25.6001C28 26.3456 28 26.7183 27.8782 27.0124C27.7158 27.4044 27.4043 27.7159 27.0122 27.8783C26.7182 28.0001 26.3455 28.0001 25.6 28.0001C24.8544 28.0001 24.4817 28.0001 24.1877 27.8783C23.7956 27.7159 23.4841 27.4044 23.3217 27.0124C23.2 26.7183 23.2 26.3456 23.2 25.6001Z" stroke="#141ED2" stroke-width="1.5"/>
<path d="M12 23.2001C12 21.6916 12 20.9373 12.4686 20.4687C12.9373 20.0001 13.6915 20.0001 15.2 20.0001H16.8C18.3085 20.0001 19.0627 20.0001 19.5314 20.4687C20 20.9373 20 21.6916 20 23.2001V24.8001C20 26.3086 20 27.0628 19.5314 27.5315C19.0627 28.0001 18.3085 28.0001 16.8 28.0001H15.2C13.6915 28.0001 12.9373 28.0001 12.4686 27.5315C12 27.0628 12 26.3086 12 24.8001V23.2001Z" stroke="#141ED2" stroke-width="1.5"/>
<path d="M12 14.4001C12 13.6546 12 13.2818 12.1218 12.9878C12.2842 12.5958 12.5957 12.2843 12.9877 12.1219C13.2817 12.0001 13.6545 12.0001 14.4 12.0001H17.6C18.3455 12.0001 18.7183 12.0001 19.0123 12.1219C19.4043 12.2843 19.7158 12.5958 19.8782 12.9878C20 13.2818 20 13.6546 20 14.4001C20 15.1456 20 15.5184 19.8782 15.8124C19.7158 16.2044 19.4043 16.5159 19.0123 16.6783C18.7183 16.8001 18.3455 16.8001 17.6 16.8001H14.4C13.6545 16.8001 13.2817 16.8001 12.9877 16.6783C12.5957 16.5159 12.2842 16.2044 12.1218 15.8124C12 15.5184 12 15.1456 12 14.4001Z" stroke="#141ED2" stroke-width="1.5"/>
</svg>
