<svg width="20" height="21" viewBox="0 0 20 21" fill="none" xmlns="http://www.w3.org/2000/svg">
<path fill-rule="evenodd" clip-rule="evenodd" d="M8.33398 11.3333C8.33398 10.8731 8.70708 10.5 9.16732 10.5H13.334C13.7942 10.5 14.1673 10.8731 14.1673 11.3333C14.1673 11.7936 13.7942 12.1667 13.334 12.1667H9.16732C8.70708 12.1667 8.33398 11.7936 8.33398 11.3333ZM5.83398 11.3333C5.83398 10.8731 6.20708 10.5 6.66732 10.5H6.6748C7.13504 10.5 7.50814 10.8731 7.50814 11.3333C7.50814 11.7936 7.13504 12.1667 6.6748 12.1667H6.66732C6.20708 12.1667 5.83398 11.7936 5.83398 11.3333ZM5.83398 14.6667C5.83398 14.2064 6.20708 13.8333 6.66732 13.8333H10.834C11.2942 13.8333 11.6673 14.2064 11.6673 14.6667C11.6673 15.1269 11.2942 15.5 10.834 15.5H6.66732C6.20708 15.5 5.83398 15.1269 5.83398 14.6667ZM12.4932 14.6667C12.4932 14.2064 12.8663 13.8333 13.3265 13.8333H13.334C13.7942 13.8333 14.1673 14.2064 14.1673 14.6667C14.1673 15.1269 13.7942 15.5 13.334 15.5H13.3265C12.8663 15.5 12.4932 15.1269 12.4932 14.6667Z" fill="#32383E"/>
<path d="M5.83268 2.16671C5.83268 1.70647 5.45959 1.33337 4.99935 1.33337C4.53911 1.33337 4.16602 1.70647 4.16602 2.16671V2.54075C4.48295 2.44022 4.82063 2.36844 5.17879 2.31638C5.38541 2.28635 5.60329 2.26234 5.83268 2.24315V2.16671Z" fill="#32383E"/>
<path d="M15.8327 2.54075C15.5157 2.44022 15.1781 2.36844 14.8199 2.31638C14.6133 2.28635 14.3954 2.26234 14.166 2.24315V2.16671C14.166 1.70647 14.5391 1.33337 14.9993 1.33337C15.4596 1.33337 15.8327 1.70647 15.8327 2.16671V2.54075Z" fill="#32383E"/>
<path fill-rule="evenodd" clip-rule="evenodd" d="M10.8573 2.16675H9.14269C7.51912 2.16672 6.20951 2.1667 5.17944 2.31642C4.10445 2.47267 3.214 2.80659 2.51502 3.56225C1.82458 4.30867 1.52732 5.24401 1.3868 6.37396C1.24997 7.4742 1.24998 8.87847 1.25 10.645V11.1885C1.24998 12.955 1.24997 14.3593 1.3868 15.4595C1.52732 16.5895 1.82458 17.5248 2.51502 18.2712C3.214 19.0269 4.10445 19.3608 5.17944 19.5171C6.20952 19.6668 7.51911 19.6668 9.14269 19.6667H10.8573C12.4809 19.6668 13.7905 19.6668 14.8206 19.5171C15.8955 19.3608 16.786 19.0269 17.485 18.2712C18.1754 17.5248 18.4727 16.5895 18.6132 15.4595C18.75 14.3593 18.75 12.955 18.75 11.1885V10.645C18.75 8.87848 18.75 7.4742 18.6132 6.37396C18.4727 5.24401 18.1754 4.30867 17.485 3.56225C16.786 2.80659 15.8955 2.47267 14.8206 2.31642C13.7905 2.1667 12.4809 2.16672 10.8573 2.16675ZM3.74819 8.00009C3.366 8.00009 3.17491 8.00009 3.05321 8.12022C2.93151 8.24036 2.92906 8.42902 2.92417 8.80634C2.91689 9.36731 2.91667 9.99523 2.91667 10.7028V11.1307C2.91667 12.9681 2.91819 14.2685 3.04073 15.2538C3.16106 16.2215 3.38552 16.7579 3.73852 17.1395C4.08297 17.5119 4.55392 17.742 5.41917 17.8677C6.31548 17.998 7.50354 18.0001 9.20833 18.0001H10.7917C12.4965 18.0001 13.6845 17.998 14.5808 17.8677C15.4461 17.742 15.917 17.5119 16.2615 17.1395C16.6145 16.7579 16.8389 16.2215 16.9593 15.2538C17.0818 14.2685 17.0833 12.9681 17.0833 11.1307V10.7028C17.0833 9.99523 17.0831 9.36731 17.0758 8.80634C17.0709 8.42902 17.0685 8.24036 16.9468 8.12022C16.8251 8.00009 16.634 8.00009 16.2518 8.00009H3.74819Z" fill="#32383E"/>
</svg>
