<svg width="20" height="21" viewBox="0 0 20 21" fill="none" xmlns="http://www.w3.org/2000/svg">
<path d="M12.348 8.3703H13.1056C13.9423 8.3703 14.6207 9.03357 14.6207 9.85176M14.6207 9.85176V10.5925M14.6207 9.85176C14.6207 9.44267 14.9598 9.11103 15.3782 9.11103C16.215 9.11103 16.8933 9.77431 16.8933 10.5925M16.8933 10.5925V11.3332M16.8933 10.5925C16.8933 10.2047 17.2494 9.90979 17.6406 9.97354L17.9 10.0158C18.6306 10.1349 19.166 10.7529 19.166 11.4771L19.1657 11.8272C19.1657 13.437 19.1657 14.242 18.9149 14.8828C18.7694 15.2546 18.3856 15.7287 18.0787 16.0713C17.8133 16.3676 17.6506 16.7434 17.6506 17.1373V18M12.3478 9.85176V5.77773C12.3478 5.16408 11.8391 4.66663 11.2115 4.66663C10.5839 4.66663 10.0752 5.16408 10.0752 5.77773L10.075 11.6758L8.84755 10.4718C8.30898 9.94352 7.42185 9.99172 6.94605 10.5751C6.58198 11.0215 6.57193 11.6529 6.9216 12.1102L9.64857 15.5162C10.1703 16.1679 10.4538 17.1724 10.4538 18" stroke="#32383E" stroke-width="1.5" stroke-linecap="round" stroke-linejoin="round"/>
<path d="M5.83449 15.5C4.81419 15.492 4.21655 15.4518 3.72463 15.2481C2.90752 14.9098 2.25832 14.2608 1.91986 13.4439C1.66602 12.8312 1.66602 12.0545 1.66602 10.5012V8.83427C1.66602 5.69111 1.66602 4.11953 2.64275 3.14308C3.61949 2.16663 5.19152 2.16663 8.33558 2.16663H11.6704C14.8144 2.16663 16.3865 2.16663 17.3632 3.14308C18.1494 3.9291 18.3028 5.10075 18.3327 7.16736" stroke="#32383E" stroke-width="1.5" stroke-linecap="round"/>
</svg>
