<svg width="44" height="45" viewBox="0 0 44 45" fill="none" xmlns="http://www.w3.org/2000/svg">
<rect x="2" y="2.5" width="40" height="40" rx="5" fill="#DEDEFA"/>
<rect x="2" y="2.5" width="40" height="40" rx="5" stroke="#EFEFFD" stroke-width="4"/>
<path d="M17.334 20.7499C18.3005 20.7499 19.084 19.9664 19.084 18.9999C19.084 18.0334 18.3005 17.2499 17.334 17.2499C16.3675 17.2499 15.584 18.0334 15.584 18.9999C15.584 19.9664 16.3675 20.7499 17.334 20.7499Z" fill="#5C59E8"/>
<path fill-rule="evenodd" clip-rule="evenodd" d="M14.709 11.7083C12.776 11.7083 11.209 13.2753 11.209 15.2083V29.7916C11.209 31.7246 12.776 33.2916 14.709 33.2916H29.2923C31.2253 33.2916 32.7923 31.7246 32.7923 29.7916V15.2083C32.7923 13.2753 31.2253 11.7083 29.2923 11.7083H14.709ZM29.2923 14.0416H14.709C14.0647 14.0416 13.5423 14.5639 13.5423 15.2083V24.2711L16.4575 22.4771C16.6516 22.3577 16.8973 22.3622 17.0868 22.4885L20.1982 24.5628L25.1426 20.7171C25.3532 20.5533 25.6482 20.5533 25.8588 20.7171L30.459 24.295V15.2083C30.459 14.5639 29.9366 14.0416 29.2923 14.0416ZM13.5423 29.7916V27.0108L16.7255 25.052L20.3032 27.4371L25.5007 23.3946L30.459 27.251V29.7916C30.459 30.4359 29.9366 30.9583 29.2923 30.9583H14.709C14.0647 30.9583 13.5423 30.4359 13.5423 29.7916Z" fill="#5C59E8"/>
</svg>
