<svg width="20" height="21" viewBox="0 0 20 21" fill="none" xmlns="http://www.w3.org/2000/svg">
<circle cx="6.25" cy="6.75" r="1.25" stroke="#32383E" stroke-width="1.5" stroke-linecap="round" stroke-linejoin="round"/>
<path d="M2.08398 10.5C2.08398 6.76809 2.08398 4.90211 3.24335 3.74274C4.40272 2.58337 6.2687 2.58337 10.0007 2.58337C13.7326 2.58337 15.5986 2.58337 16.7579 3.74274C17.9173 4.90211 17.9173 6.76809 17.9173 10.5C17.9173 14.232 17.9173 16.098 16.7579 17.2573C15.5986 18.4167 13.7326 18.4167 10.0007 18.4167C6.2687 18.4167 4.40272 18.4167 3.24335 17.2573C2.08398 16.098 2.08398 14.232 2.08398 10.5Z" stroke="#32383E" stroke-width="1.5"/>
<path d="M4.16797 18.0001C7.81168 13.6459 11.8964 7.90346 17.9159 11.7854" stroke="#32383E" stroke-width="1.5"/>
</svg>
