<svg width="537" height="537" viewBox="0 0 537 537" fill="none" xmlns="http://www.w3.org/2000/svg">
<path d="M300.207 50.0306C308.244 48.0079 317.23 49.8158 323.585 55.2126C334.28 63.6793 336.124 80.8991 327.389 91.4064C310.571 110.989 293.7 130.518 276.865 150.083C272.47 155.256 265.283 157.869 258.597 156.67C251.867 155.65 245.924 150.799 243.498 144.462C241.136 138.653 241.852 131.771 245.235 126.508C258.096 105.342 270.958 84.1748 283.783 62.9812C287.22 56.6715 293.217 51.8116 300.207 50.0306Z" fill="#EB2D4B"/>
<path d="M315.386 131.413C321.857 129.193 329.563 130.849 334.244 135.933C337.117 138.868 338.764 142.869 339.077 146.95C341.78 175.331 344.528 203.702 347.213 232.083C348.117 240.03 345.405 248.372 339.543 253.903C331.246 262.369 316.926 263.658 307.107 257.116C299.178 252.014 294.389 242.42 295.365 233.004C298.139 204.015 300.896 175.017 303.715 146.028C304.369 139.432 309.148 133.561 315.386 131.413Z" fill="#EB2D4B"/>
<path d="M75.5661 132.424C86.1184 129.524 98.2907 133.829 104.189 143.155C117.498 165.038 130.762 186.957 144.071 208.848C146.72 213.073 147.839 218.291 146.81 223.204C145.655 230.015 140.544 235.931 134.011 238.142C126.564 240.854 117.587 238.553 112.486 232.467C95.7846 213.055 79.0478 193.678 62.3557 174.266C54.6227 165.28 54.3811 150.951 61.7471 141.679C65.1839 137.195 70.1065 133.874 75.5661 132.424Z" fill="#EB2D4B"/>
<path d="M150.73 149.447C153.934 148.4 157.407 148.4 160.674 149.134C188.992 155.462 217.337 161.655 245.638 168.045C258.311 171.008 267.136 184.567 264.773 197.356C263.162 209.43 252.028 219.177 239.883 219.365C235.837 219.544 231.819 218.604 228.14 216.993C201.773 205.528 175.397 194.081 149.029 182.634C142.496 179.886 138.209 172.86 138.495 165.817C138.584 158.505 143.767 151.64 150.73 149.447Z" fill="#EB2D4B"/>
<path d="M375.335 220.913C382.11 218.407 389.082 221.235 395.75 222.64C417.222 227.706 438.693 232.754 460.174 237.802C465.472 239.028 470.44 241.811 474.02 245.937C479.757 252.229 481.958 261.465 479.801 269.699C478.083 276.958 472.946 283.25 466.305 286.597C459.565 289.998 451.367 290.293 444.412 287.349C420.82 277.414 397.182 267.551 373.59 257.617C366.51 254.574 361.686 246.993 362.017 239.278C361.963 231.134 367.602 223.428 375.335 220.913Z" fill="#EB2D4B"/>
<path d="M167.565 233.219C179.326 230.149 192.536 236.575 197.423 247.682C201.603 256.65 200.126 267.945 193.628 275.436C175.298 296.182 156.959 316.92 138.629 337.666C136.553 340.019 134.566 342.57 131.809 344.172C125.043 348.388 115.385 347.332 109.89 341.478C104.377 336.126 103.151 327.06 106.945 320.392C121.659 295.413 136.374 270.433 151.132 245.472C154.623 239.35 160.709 234.812 167.565 233.219Z" fill="#EB2D4B"/>
<path d="M385.091 282.346C391.955 280.538 399.858 283.142 403.966 289.013C408.424 294.929 408.522 303.647 404.298 309.715C402.364 312.606 399.482 314.745 396.305 316.096C370.153 327.427 344 338.784 317.866 350.16C310.5 353.516 301.567 353.319 294.452 349.444C286.048 344.987 280.526 335.67 280.803 326.147C280.696 314.521 289.431 303.593 300.771 301.096C328.874 294.822 356.996 288.646 385.091 282.346Z" fill="#EB2D4B"/>
<path d="M208.02 315.935C218.805 312.561 231.532 316.991 237.502 326.675C252.386 351.771 267.154 376.947 281.993 402.079C285.063 407.162 285.376 413.785 282.763 419.129C280.042 424.857 274.01 428.875 267.646 429.027C262.428 429.376 257.156 427.175 253.63 423.344C236.302 403.69 218.921 384.098 201.594 364.453C197.011 359.307 191.704 354.187 190.29 347.153C186.763 334.193 195.051 319.488 208.02 315.935Z" fill="#EB2D4B"/>
<path d="M159.823 353.579C169.659 351.1 180.596 357.517 183.156 367.326C185.984 376.419 181.115 387.114 172.317 390.829C148.537 400.808 124.756 410.805 100.949 420.731C90.1637 425.197 76.6757 421.285 70.0884 411.611C64.7541 404.209 63.8054 393.943 67.6092 385.656C70.7955 378.442 77.4902 372.973 85.1516 371.148C110.042 365.303 134.933 359.423 159.823 353.579Z" fill="#EB2D4B"/>
<path d="M316.425 366.127C322.6 364.48 329.519 366.136 334.325 370.342C338.388 373.824 340.814 379.041 341.073 384.376C342.935 407.019 344.815 429.645 346.703 452.279C347.061 456.468 347.544 460.674 347.204 464.881C346.461 472.444 342.022 479.478 335.685 483.613C328.364 488.509 318.501 489.216 310.509 485.564C300.923 481.349 294.559 470.904 295.311 460.442C297.173 437.431 299.151 414.43 301.021 391.428C301.594 386.38 301.245 381.019 303.653 376.383C306.141 371.309 310.929 367.469 316.425 366.127Z" fill="#EB2D4B"/>
</svg>
