<svg width="20" height="20" viewBox="0 0 20 20" fill="none" xmlns="http://www.w3.org/2000/svg">
<path d="M11.6663 5.00004C11.6663 5.92052 10.9201 6.66671 9.99967 6.66671C9.0792 6.66671 8.33301 5.92052 8.33301 5.00004C8.33301 4.07957 9.0792 3.33337 9.99967 3.33337C10.9201 3.33337 11.6663 4.07957 11.6663 5.00004Z" fill="#858D9D"/>
<path d="M11.6663 10C11.6663 10.9205 10.9201 11.6667 9.99967 11.6667C9.0792 11.6667 8.33301 10.9205 8.33301 10C8.33301 9.07957 9.0792 8.33337 9.99967 8.33337C10.9201 8.33337 11.6663 9.07957 11.6663 10Z" fill="#858D9D"/>
<path d="M9.99967 16.6667C10.9201 16.6667 11.6663 15.9205 11.6663 15C11.6663 14.0796 10.9201 13.3334 9.99967 13.3334C9.0792 13.3334 8.33301 14.0796 8.33301 15C8.33301 15.9205 9.0792 16.6667 9.99967 16.6667Z" fill="#858D9D"/>
</svg>
