<svg width="16" height="16" viewBox="0 0 16 16" fill="none" xmlns="http://www.w3.org/2000/svg">
  <path
    d="M7.33333 12C7.14444 12 6.98611 11.9361 6.85833 11.8083C6.73056 11.6806 6.66667 11.5222 6.66667 11.3333C6.66667 11.1444 6.73056 10.9861 6.85833 10.8583C6.98611 10.7306 7.14444 10.6667 7.33333 10.6667H8.66667C8.85556 10.6667 9.01389 10.7306 9.14167 10.8583C9.26944 10.9861 9.33333 11.1444 9.33333 11.3333C9.33333 11.5222 9.26944 11.6806 9.14167 11.8083C9.01389 11.9361 8.85556 12 8.66667 12H7.33333ZM2.66667 5.33333C2.47778 5.33333 2.31944 5.26944 2.19167 5.14167C2.06389 5.01389 2 4.85556 2 4.66667C2 4.47778 2.06389 4.31944 2.19167 4.19167C2.31944 4.06389 2.47778 4 2.66667 4H13.3333C13.5222 4 13.6806 4.06389 13.8083 4.19167C13.9361 4.31944 14 4.47778 14 4.66667C14 4.85556 13.9361 5.01389 13.8083 5.14167C13.6806 5.26944 13.5222 5.33333 13.3333 5.33333H2.66667ZM4.66667 8.66667C4.47778 8.66667 4.31944 8.60278 4.19167 8.475C4.06389 8.34722 4 8.18889 4 8C4 7.81111 4.06389 7.65278 4.19167 7.525C4.31944 7.39722 4.47778 7.33333 4.66667 7.33333H11.3333C11.5222 7.33333 11.6806 7.39722 11.8083 7.525C11.9361 7.65278 12 7.81111 12 8C12 8.18889 11.9361 8.34722 11.8083 8.475C11.6806 8.60278 11.5222 8.66667 11.3333 8.66667H4.66667Z"
    fill="#0E91EF" />
</svg>
  