<svg width="20" height="20" viewBox="0 0 20 20" fill="none" xmlns="http://www.w3.org/2000/svg">
<path d="M13.0893 6.00582C12.7639 6.33126 12.2363 6.33126 11.9108 6.00582L10.8334 4.92841V12.9166C10.8334 13.3768 10.4603 13.7499 10.0001 13.7499C9.53984 13.7499 9.16675 13.3768 9.16675 12.9166V4.92841L8.08934 6.00582C7.7639 6.33126 7.23626 6.33126 6.91083 6.00582C6.58539 5.68039 6.58539 5.15275 6.91083 4.82731L9.70545 2.03268C9.86817 1.86997 10.132 1.86996 10.2947 2.03268L13.0893 4.82731C13.4148 5.15275 13.4148 5.68039 13.0893 6.00582Z" fill="#5C59E8"/>
<path d="M15.0001 7.08323C16.841 7.08323 18.3334 8.57562 18.3334 10.4166V14.5832C18.3334 16.4242 16.841 17.9166 15.0001 17.9166H5.00008C3.15913 17.9166 1.66675 16.4242 1.66675 14.5832V10.4166C1.66675 8.57562 3.15913 7.08323 5.00008 7.08323H6.66675C7.12699 7.08323 7.50008 7.45633 7.50008 7.91657C7.50008 8.37681 7.12699 8.7499 6.66675 8.7499H5.00008C4.07961 8.7499 3.33341 9.49609 3.33341 10.4166V14.5832C3.33341 15.5037 4.07961 16.2499 5.00008 16.2499H15.0001C15.9206 16.2499 16.6667 15.5037 16.6667 14.5832V10.4166C16.6667 9.49609 15.9206 8.7499 15.0001 8.7499H13.3334C12.8732 8.7499 12.5001 8.37681 12.5001 7.91657C12.5001 7.45633 12.8732 7.08323 13.3334 7.08323H15.0001Z" fill="#5C59E8"/>
</svg>
