<svg width="40" height="40" viewBox="0 0 40 40" fill="none" xmlns="http://www.w3.org/2000/svg">
<rect x="2" y="2.00009" width="36" height="36" rx="18" fill="#DEDEFA"/>
<rect x="2" y="2.00009" width="36" height="36" rx="18" stroke="#EFEFFD" stroke-width="4"/>
<path d="M27.6773 25.2501C28.3329 25.2501 28.8544 24.8375 29.3226 24.2606C30.2812 23.0796 28.7074 22.1358 28.1072 21.6736C27.497 21.2038 26.8157 20.9376 26.125 20.8751M25.25 19.1251C26.4581 19.1251 27.4375 18.1457 27.4375 16.9376C27.4375 15.7295 26.4581 14.7501 25.25 14.7501" stroke="#141ED2" stroke-width="1.5" stroke-linecap="round"/>
<path d="M12.3227 25.2501C11.6671 25.2501 11.1456 24.8375 10.6774 24.2606C9.71883 23.0796 11.2926 22.1358 11.8928 21.6736C12.503 21.2038 13.1843 20.9376 13.875 20.8751M14.3125 19.1251C13.1044 19.1251 12.125 18.1457 12.125 16.9376C12.125 15.7295 13.1044 14.7501 14.3125 14.7501" stroke="#141ED2" stroke-width="1.5" stroke-linecap="round"/>
<path d="M16.5733 22.7224C15.6793 23.2752 13.3351 24.404 14.7629 25.8166C15.4603 26.5066 16.2371 27.0001 17.2137 27.0001H22.7863C23.7629 27.0001 24.5397 26.5066 25.2371 25.8166C26.6649 24.404 24.3207 23.2752 23.4267 22.7224C21.3301 21.426 18.6699 21.426 16.5733 22.7224Z" stroke="#141ED2" stroke-width="1.5" stroke-linecap="round" stroke-linejoin="round"/>
<path d="M23.0625 16.0626C23.0625 17.754 21.6914 19.1251 20 19.1251C18.3086 19.1251 16.9375 17.754 16.9375 16.0626C16.9375 14.3712 18.3086 13.0001 20 13.0001C21.6914 13.0001 23.0625 14.3712 23.0625 16.0626Z" stroke="#141ED2" stroke-width="1.5"/>
</svg>
