<svg width="20" height="20" viewBox="0 0 20 20" fill="none" xmlns="http://www.w3.org/2000/svg">
<path d="M6.91066 13.9942C7.2361 13.6687 7.76374 13.6687 8.08917 13.9942L9.16659 15.0716L9.16659 7.08343C9.16659 6.62319 9.53968 6.2501 9.99992 6.2501C10.4602 6.2501 10.8333 6.62319 10.8333 7.08343L10.8333 15.0716L11.9107 13.9942C12.2361 13.6687 12.7637 13.6687 13.0892 13.9942C13.4146 14.3196 13.4146 14.8473 13.0892 15.1727L10.2945 17.9673C10.1318 18.13 9.86801 18.13 9.70529 17.9673L6.91066 15.1727C6.58523 14.8473 6.58523 14.3196 6.91066 13.9942Z" fill="#5C59E8"/>
<path d="M4.99992 12.9168C3.15897 12.9168 1.66658 11.4244 1.66658 9.58343L1.66659 5.41676C1.66659 3.57581 3.15897 2.08343 4.99992 2.08343L14.9999 2.08343C16.8409 2.08343 18.3333 3.57582 18.3333 5.41677L18.3333 9.58343C18.3333 11.4244 16.8409 12.9168 14.9999 12.9168L13.3333 12.9168C12.873 12.9168 12.4999 12.5437 12.4999 12.0834C12.4999 11.6232 12.873 11.2501 13.3333 11.2501L14.9999 11.2501C15.9204 11.2501 16.6666 10.5039 16.6666 9.58343L16.6666 5.41677C16.6666 4.49629 15.9204 3.7501 14.9999 3.7501L4.99992 3.7501C4.07944 3.7501 3.33325 4.49629 3.33325 5.41676L3.33325 9.58343C3.33325 10.5039 4.07944 11.2501 4.99992 11.2501L6.66659 11.2501C7.12682 11.2501 7.49992 11.6232 7.49992 12.0834C7.49992 12.5437 7.12682 12.9168 6.66659 12.9168L4.99992 12.9168Z" fill="#5C59E8"/>
</svg>
