<svg width="20" height="20" viewBox="0 0 20 20" fill="none" xmlns="http://www.w3.org/2000/svg">
    <path
        d="M4.99967 18.3333C4.54134 18.3333 4.14898 18.1701 3.82259 17.8437C3.4962 17.5173 3.33301 17.1249 3.33301 16.6666V8.33325C3.33301 7.87492 3.4962 7.48256 3.82259 7.15617C4.14898 6.82978 4.54134 6.66659 4.99967 6.66659H5.83301V4.99992C5.83301 3.84714 6.23926 2.8645 7.05176 2.052C7.86426 1.2395 8.8469 0.833252 9.99967 0.833252C11.1525 0.833252 12.1351 1.2395 12.9476 2.052C13.7601 2.8645 14.1663 3.84714 14.1663 4.99992V6.66659H14.9997C15.458 6.66659 15.8504 6.82978 16.1768 7.15617C16.5031 7.48256 16.6663 7.87492 16.6663 8.33325V16.6666C16.6663 17.1249 16.5031 17.5173 16.1768 17.8437C15.8504 18.1701 15.458 18.3333 14.9997 18.3333H4.99967ZM4.99967 16.6666H14.9997V8.33325H4.99967V16.6666ZM9.99967 14.1666C10.458 14.1666 10.8504 14.0034 11.1768 13.677C11.5031 13.3506 11.6663 12.9583 11.6663 12.4999C11.6663 12.0416 11.5031 11.6492 11.1768 11.3228C10.8504 10.9964 10.458 10.8333 9.99967 10.8333C9.54134 10.8333 9.14898 10.9964 8.82259 11.3228C8.4962 11.6492 8.33301 12.0416 8.33301 12.4999C8.33301 12.9583 8.4962 13.3506 8.82259 13.677C9.14898 14.0034 9.54134 14.1666 9.99967 14.1666ZM7.49967 6.66659H12.4997V4.99992C12.4997 4.30547 12.2566 3.7152 11.7705 3.22909C11.2844 2.74297 10.6941 2.49992 9.99967 2.49992C9.30523 2.49992 8.71495 2.74297 8.22884 3.22909C7.74273 3.7152 7.49967 4.30547 7.49967 4.99992V6.66659Z"
        fill="#5E6371" />
</svg>