<svg width="20" height="20" viewBox="0 0 20 20" fill="none" xmlns="http://www.w3.org/2000/svg">
<path d="M5.83325 1.66666C5.17021 1.66666 4.53433 1.93006 4.06548 2.3989C3.59664 2.86774 3.33325 3.50362 3.33325 4.16666V15.8333C3.33325 16.4964 3.59664 17.1323 4.06548 17.6011C4.53433 18.0699 5.17021 18.3333 5.83325 18.3333H14.1666C14.8296 18.3333 15.4655 18.0699 15.9344 17.6011C16.4032 17.1323 16.6666 16.4964 16.6666 15.8333V15C16.6666 14.5398 16.2935 14.1667 15.8333 14.1667C15.373 14.1667 14.9999 14.5398 14.9999 15V15.8333C14.9999 16.0543 14.9121 16.2663 14.7558 16.4226C14.5996 16.5789 14.3876 16.6667 14.1666 16.6667H5.83325C5.61224 16.6667 5.40028 16.5789 5.244 16.4226C5.08772 16.2663 4.99992 16.0543 4.99992 15.8333V4.16666C4.99992 3.94565 5.08772 3.73369 5.244 3.57741C5.40028 3.42113 5.61224 3.33333 5.83325 3.33333H14.1666C14.3876 3.33333 14.5996 3.42113 14.7558 3.57741C14.9121 3.73369 14.9999 3.94565 14.9999 4.16666V5C14.9999 5.46023 15.373 5.83333 15.8333 5.83333C16.2935 5.83333 16.6666 5.46023 16.6666 5V4.16666C16.6666 3.50362 16.4032 2.86774 15.9344 2.3989C15.4655 1.93006 14.8296 1.66666 14.1666 1.66666H5.83325Z" fill="#D55F5A"/>
<path d="M13.9225 6.91074C13.5971 6.5853 13.0694 6.5853 12.744 6.91074C12.4186 7.23618 12.4186 7.76382 12.744 8.08925L13.8214 9.16666H9.99992C9.53968 9.16666 9.16658 9.53976 9.16658 10C9.16658 10.4602 9.53968 10.8333 9.99992 10.8333H13.8214L12.744 11.9107C12.4186 12.2362 12.4186 12.7638 12.744 13.0893C13.0694 13.4147 13.5971 13.4147 13.9225 13.0893L16.4225 10.5893C16.7479 10.2638 16.7479 9.73618 16.4225 9.41074L13.9225 6.91074Z" fill="#D55F5A"/>
</svg>
