<svg width="400" height="206" viewBox="0 0 400 206" fill="none" xmlns="http://www.w3.org/2000/svg">
    <g clip-path="url(#clip0_4533_57385)">
        <path
            d="M123.176 186.065C123.176 175.167 157.132 166.218 198.984 166.218C240.837 166.218 274.793 175.167 274.793 186.153C274.778 187.397 274.38 188.605 273.652 189.609C267.335 198.912 236.274 206 198.984 206C157.132 206 123.176 197.051 123.176 186.065Z"
            fill="#7A97F4" />
        <path
            d="M108.084 172.509H35.0836C33.2127 172.513 31.3947 173.136 29.9068 174.281L1.82958 196.52C1.53866 196.745 1.32454 197.056 1.21707 197.41C1.10959 197.763 1.11412 198.142 1.23002 198.493C1.34591 198.845 1.5674 199.15 1.86361 199.368C2.15983 199.586 2.516 199.705 2.88247 199.709H80.0072C81.9636 199.69 83.8418 198.931 85.2717 197.583L108.874 174.547C109.046 174.386 109.166 174.177 109.219 173.947C109.271 173.717 109.253 173.476 109.168 173.256C109.083 173.035 108.934 172.846 108.74 172.713C108.547 172.58 108.319 172.509 108.084 172.509Z"
            fill="#7A97F4" />
        <path
            d="M397.719 172.509H324.63C322.759 172.513 320.941 173.136 319.453 174.281L291.376 196.52C291.085 196.745 290.871 197.056 290.763 197.41C290.656 197.764 290.661 198.142 290.776 198.494C290.892 198.845 291.114 199.15 291.41 199.368C291.706 199.586 292.062 199.706 292.429 199.709H369.554C371.51 199.69 373.388 198.931 374.818 197.583L398.421 174.547C398.608 174.401 398.745 174.2 398.813 173.971C398.881 173.742 398.875 173.498 398.798 173.272C398.72 173.047 398.574 172.851 398.38 172.714C398.187 172.577 397.955 172.506 397.719 172.509Z"
            fill="#7A97F4" />
        <path
            d="M123.176 182.433C123.176 171.535 157.132 162.586 198.984 162.586C240.837 162.586 274.793 171.535 274.793 182.521C274.778 183.765 274.38 184.973 273.652 185.977C267.335 195.28 236.274 202.368 198.984 202.368C157.132 202.368 123.176 193.419 123.176 182.433Z"
            fill="#E1E5FF" />
        <path
            d="M273.652 185.977C267.335 195.28 236.362 202.368 198.984 202.368C157.132 202.368 123.176 193.419 123.176 182.433C123.176 182.433 136.337 198.469 196.352 198.469C247.944 198.558 268.739 188.723 273.652 185.977Z"
            fill="#C2D1FF" />
        <path
            d="M242.153 177.825C239.258 174.635 221.007 172.155 198.984 172.155C175.996 172.155 157.219 174.813 155.552 178.179C156.342 176.23 161.606 169.497 198.984 169.497C233.379 169.497 240.661 175.521 242.153 177.825Z"
            fill="#C2D1FF" />
        <path
            d="M108.698 172.509L93.3435 61.5804C93.2588 61.0092 92.9723 60.4882 92.5369 60.1136C92.1014 59.7391 91.5465 59.5363 90.9745 59.5426H70.2675C69.9263 59.5447 69.5895 59.62 69.2794 59.7637C68.9692 59.9073 68.693 60.116 68.4689 60.3758C68.2448 60.6356 68.078 60.9406 67.9797 61.2705C67.8813 61.6004 67.8537 61.9477 67.8985 62.2893L73.0752 104.197C73.1254 104.587 73.0924 104.982 72.9783 105.358C72.8643 105.733 72.6719 106.079 72.4142 106.373C72.1564 106.667 71.8393 106.902 71.4841 107.061C71.1289 107.221 70.744 107.302 70.3553 107.298H46.6651C45.9489 107.303 45.2583 107.03 44.7359 106.535C44.2134 106.041 43.8989 105.362 43.8573 104.64L41.927 61.9348C41.8971 61.3184 41.6353 60.7367 41.195 60.3086C40.7547 59.8804 40.1692 59.6382 39.558 59.6312H20.1672C19.8468 59.6247 19.5285 59.6851 19.2324 59.8087C18.9362 59.9322 18.6685 60.1162 18.4461 60.3492C18.2237 60.5821 18.0513 60.8589 17.9398 61.1623C17.8283 61.4656 17.7801 61.789 17.7981 62.1121L20.4304 135.119C20.4836 136.237 20.9589 137.291 21.7586 138.066C22.5583 138.841 23.6216 139.276 24.7297 139.283H77.4623L81.5862 172.686H108.698V172.509Z"
            fill="#141ED2" />
        <path
            d="M398.333 172.509L382.978 61.5804C382.894 61.0092 382.607 60.4882 382.172 60.1136C381.736 59.7391 381.181 59.5363 380.609 59.5426H359.902C359.561 59.5447 359.224 59.62 358.914 59.7637C358.604 59.9073 358.328 60.116 358.104 60.3758C357.88 60.6356 357.713 60.9406 357.615 61.2705C357.516 61.6004 357.489 61.9477 357.533 62.2893L362.71 104.197C362.76 104.587 362.727 104.982 362.613 105.358C362.499 105.733 362.307 106.079 362.049 106.373C361.791 106.667 361.474 106.902 361.119 107.061C360.764 107.221 360.379 107.302 359.99 107.298H336.3C335.584 107.303 334.893 107.03 334.371 106.535C333.848 106.041 333.534 105.362 333.492 104.64L331.562 61.9348C331.532 61.3184 331.27 60.7367 330.83 60.3086C330.39 59.8804 329.804 59.6382 329.193 59.6312H309.89C309.569 59.6247 309.251 59.6851 308.955 59.8087C308.659 59.9322 308.391 60.1162 308.169 60.3492C307.946 60.5821 307.774 60.8589 307.662 61.1623C307.551 61.4656 307.503 61.789 307.521 62.1121L310.153 135.119C310.206 136.237 310.682 137.291 311.481 138.066C312.281 138.841 313.344 139.276 314.452 139.283H367.185L371.309 172.686H398.333V172.509Z"
            fill="#141ED2" />
        <path
            d="M92.7292 62.7326L81.1474 195.28C81.0505 196.483 80.5099 197.606 79.6326 198.426C78.7552 199.246 77.605 199.704 76.4093 199.71H59.0365C58.3608 199.71 57.6928 199.565 57.0767 199.285C56.4605 199.004 55.9103 198.595 55.4624 198.084C55.0145 197.574 54.6792 196.972 54.4785 196.321C54.2779 195.669 54.2165 194.982 54.2985 194.305L61.581 132.196L9.55036 133.082C8.87818 133.093 8.2118 132.954 7.59904 132.675C6.98627 132.396 6.44232 131.983 6.00619 131.466C5.57005 130.95 5.25257 130.342 5.07649 129.687C4.90042 129.032 4.87013 128.345 4.9878 127.677L5.16329 126.525L17.0961 61.9352C17.257 61.0661 17.7131 60.2808 18.3858 59.7148C19.0585 59.1487 19.9056 58.8373 20.7813 58.8342H37.3644C37.9075 58.8433 38.4423 58.9701 38.9327 59.2059C39.4231 59.4416 39.8577 59.781 40.207 60.201C40.5564 60.6209 40.8124 61.1117 40.9577 61.6402C41.1031 62.1687 41.1344 62.7225 41.0495 63.2642L33.9425 104.021C33.8752 104.405 33.8932 104.8 33.9952 105.177C34.0973 105.554 34.2807 105.903 34.5325 106.2C34.7842 106.496 35.098 106.733 35.4511 106.892C35.8042 107.052 36.188 107.13 36.5747 107.122H61.4056L67.1965 61.8466C67.3181 60.9916 67.7389 60.2087 68.3827 59.6399C69.0265 59.071 69.8507 58.7538 70.7061 58.7456H89.2196C89.7095 58.7742 90.1889 58.9001 90.6306 59.116C91.0722 59.332 91.4673 59.6337 91.7933 60.0041C92.1193 60.3744 92.3698 60.806 92.5304 61.2742C92.691 61.7424 92.7586 62.238 92.7292 62.7326Z"
            fill="#E1E5FF" />
        <path
            d="M61.9318 126.525L61.4931 132.196L9.46247 133.082C8.79029 133.093 8.12391 132.955 7.51115 132.675C6.89838 132.396 6.35442 131.983 5.91829 131.467C5.48216 130.95 5.16467 130.342 4.9886 129.687C4.81253 129.032 4.78224 128.346 4.89991 127.677L5.0754 126.525H61.9318Z"
            fill="#C2D1FF" />
        <path
            d="M92.729 62.7324L81.1471 195.279C81.0502 196.483 80.5097 197.606 79.6323 198.426C78.755 199.246 77.6048 199.704 76.4091 199.709H73.7769L87.5523 58.834H89.2193C89.7071 58.8456 90.1874 58.957 90.6311 59.1616C91.0749 59.3661 91.473 59.6596 91.8011 60.0241C92.1293 60.3886 92.3807 60.8166 92.5402 61.2821C92.6997 61.7477 92.7639 62.2411 92.729 62.7324Z"
            fill="#C2D1FF" />
        <path
            d="M33.8555 104.109C33.7882 104.494 33.8063 104.889 33.9083 105.266C34.0103 105.642 34.1938 105.992 34.4455 106.288C34.6973 106.585 35.011 106.821 35.3641 106.981C35.7173 107.14 36.101 107.219 36.4878 107.21H31.3988C30.9597 107.213 30.5254 107.119 30.1263 106.934C29.7272 106.749 29.373 106.479 29.0887 106.141C28.8043 105.803 28.5967 105.406 28.4804 104.979C28.3641 104.551 28.342 104.103 28.4155 103.666L36.2245 58.9229H37.3652C37.9083 58.932 38.4431 59.0587 38.9335 59.2945C39.4239 59.5303 39.8584 59.8696 40.2078 60.2896C40.5571 60.7096 40.8131 61.2004 40.9585 61.7289C41.1038 62.2573 41.1352 62.8112 41.0503 63.3529L33.8555 104.109Z"
            fill="#C2D1FF" />
        <path
            d="M382.276 62.7326L370.694 195.28C370.597 196.483 370.056 197.606 369.179 198.426C368.302 199.246 367.151 199.704 365.956 199.71H348.583C347.907 199.71 347.239 199.565 346.623 199.285C346.007 199.004 345.457 198.595 345.009 198.084C344.561 197.574 344.226 196.972 344.025 196.321C343.824 195.669 343.763 194.982 343.845 194.305L351.127 132.196L299.097 133.082C298.425 133.093 297.758 132.954 297.145 132.675C296.533 132.396 295.989 131.983 295.553 131.466C295.116 130.95 294.799 130.342 294.623 129.687C294.447 129.032 294.417 128.345 294.534 127.677L294.71 126.525L306.643 61.9352C306.803 61.0661 307.26 60.2808 307.932 59.7148C308.605 59.1487 309.452 58.8373 310.328 58.8342H326.911C327.454 58.8433 327.989 58.9701 328.479 59.2059C328.969 59.4416 329.404 59.781 329.753 60.201C330.103 60.6209 330.359 61.1117 330.504 61.6402C330.649 62.1687 330.681 62.7225 330.596 63.2642L323.489 104.021C323.422 104.405 323.44 104.8 323.542 105.177C323.644 105.554 323.827 105.903 324.079 106.2C324.331 106.496 324.644 106.733 324.997 106.892C325.351 107.052 325.734 107.13 326.121 107.122H350.952L356.743 61.8466C356.864 60.9916 357.285 60.2087 357.929 59.6399C358.573 59.071 359.397 58.7538 360.253 58.7456H378.766C379.261 58.7585 379.748 58.874 380.197 59.0847C380.646 59.2954 381.048 59.597 381.377 59.9708C381.706 60.3445 381.955 60.7825 382.11 61.2576C382.265 61.7326 382.321 62.2347 382.276 62.7326Z"
            fill="#E1E5FF" />
        <path
            d="M351.566 126.525L351.127 132.196L299.097 133.082C298.425 133.093 297.758 132.955 297.145 132.675C296.533 132.396 295.989 131.983 295.553 131.467C295.116 130.95 294.799 130.342 294.623 129.687C294.447 129.032 294.417 128.346 294.534 127.677L294.71 126.525H351.566Z"
            fill="#C2D1FF" />
        <path
            d="M382.275 62.7325L370.694 195.279C370.597 196.483 370.056 197.606 369.179 198.426C368.301 199.246 367.151 199.704 365.955 199.709H363.323L377.099 58.8341H378.766C379.258 58.8301 379.746 58.931 380.197 59.1304C380.648 59.3297 381.053 59.6229 381.384 59.9909C381.715 60.3588 381.966 60.7932 382.119 61.2656C382.273 61.7381 382.326 62.2379 382.275 62.7325Z"
            fill="#C2D1FF" />
        <path
            d="M323.49 104.109C323.423 104.494 323.441 104.889 323.543 105.266C323.645 105.642 323.828 105.992 324.08 106.288C324.332 106.585 324.645 106.821 324.998 106.981C325.352 107.14 325.735 107.219 326.122 107.21H321.033C320.594 107.213 320.16 107.119 319.761 106.934C319.361 106.749 319.007 106.479 318.723 106.141C318.439 105.803 318.231 105.406 318.115 104.979C317.998 104.551 317.976 104.103 318.05 103.666L325.859 58.9229H326.999C327.543 58.932 328.077 59.0587 328.568 59.2945C329.058 59.5303 329.493 59.8696 329.842 60.2896C330.191 60.7096 330.447 61.2004 330.593 61.7289C330.738 62.2573 330.769 62.8112 330.685 63.3529L323.49 104.109Z"
            fill="#C2D1FF" />
        <path opacity="0.28"
            d="M164.328 89.7532L146.341 181.898C145.375 186.86 148.534 191.556 152.833 191.556H248.121C252.332 191.556 255.491 187.037 254.701 182.252L239.961 90.1076C239.346 86.3863 236.626 83.7283 233.38 83.7283H170.908C167.749 83.6397 165.029 86.2091 164.328 89.7532Z"
            fill="#FEC272" />
        <path
            d="M245.574 95.5147L254.261 124.664C254.295 124.812 254.361 124.949 254.454 125.068C254.547 125.187 254.664 125.283 254.798 125.351C254.932 125.419 255.079 125.456 255.229 125.459C255.379 125.463 255.527 125.434 255.665 125.373C255.901 125.28 256.095 125.102 256.209 124.873C256.322 124.643 256.347 124.38 256.279 124.133L250.576 94.2743C250.485 93.8977 250.316 93.5452 250.078 93.2409C249.841 92.9365 249.541 92.6875 249.2 92.5109C248.858 92.3343 248.483 92.2341 248.099 92.2174C247.716 92.2006 247.334 92.2676 246.978 92.4137C246.413 92.6724 245.96 93.1289 245.701 93.6988C245.443 94.2688 245.398 94.9138 245.574 95.5147Z"
            fill="#FEC272" />
        <path
            d="M229.167 106.057L234.782 128.562C234.802 128.657 234.842 128.746 234.898 128.825C234.954 128.903 235.025 128.97 235.107 129.019C235.189 129.069 235.281 129.102 235.376 129.114C235.471 129.127 235.567 129.12 235.66 129.094C235.741 129.072 235.817 129.033 235.884 128.981C235.95 128.929 236.006 128.863 236.047 128.789C236.088 128.715 236.113 128.633 236.122 128.548C236.131 128.463 236.123 128.378 236.098 128.296L232.501 105.349C232.457 105.09 232.356 104.844 232.205 104.63C232.055 104.416 231.859 104.239 231.632 104.111C231.404 103.984 231.152 103.909 230.892 103.893C230.632 103.877 230.373 103.921 230.132 104.02C229.77 104.203 229.479 104.503 229.304 104.872C229.13 105.241 229.081 105.658 229.167 106.057Z"
            fill="#FEC272" />
        <path
            d="M155.991 98.3502L148.708 120.766C148.682 120.865 148.634 120.957 148.569 121.035C148.503 121.113 148.421 121.176 148.329 121.218C148.237 121.26 148.136 121.282 148.035 121.28C147.934 121.278 147.834 121.254 147.743 121.209C147.579 121.136 147.445 121.008 147.365 120.846C147.285 120.684 147.264 120.499 147.304 120.323L152.569 97.3756C152.636 97.1223 152.755 96.8863 152.919 96.6831C153.083 96.48 153.288 96.3143 153.521 96.1971C153.753 96.0798 154.007 96.0137 154.266 96.003C154.526 95.9923 154.785 96.0374 155.025 96.1352C155.428 96.3198 155.749 96.6478 155.927 97.0565C156.105 97.4651 156.128 97.9258 155.991 98.3502Z"
            fill="#FEC272" />
        <path
            d="M170.468 105.26L160.992 146.902C160.972 146.997 160.932 147.086 160.876 147.165C160.821 147.244 160.749 147.31 160.667 147.36C160.585 147.41 160.493 147.442 160.398 147.455C160.303 147.467 160.207 147.46 160.115 147.434C160.033 147.412 159.957 147.374 159.89 147.322C159.824 147.269 159.768 147.204 159.727 147.129C159.686 147.055 159.661 146.973 159.652 146.888C159.643 146.804 159.651 146.718 159.676 146.637L167.134 104.551C167.178 104.292 167.279 104.047 167.429 103.833C167.58 103.619 167.776 103.441 168.003 103.314C168.23 103.186 168.483 103.112 168.743 103.096C169.002 103.08 169.262 103.123 169.503 103.222C169.896 103.367 170.217 103.661 170.397 104.042C170.577 104.423 170.603 104.86 170.468 105.26Z"
            fill="#FEC272" />
        <path
            d="M190.561 110.131L185.998 140.343C185.986 140.442 185.951 140.537 185.898 140.62C185.844 140.704 185.772 140.774 185.687 140.825C185.603 140.876 185.508 140.907 185.41 140.916C185.312 140.925 185.213 140.911 185.121 140.875C184.957 140.821 184.816 140.713 184.721 140.568C184.625 140.424 184.581 140.251 184.594 140.078L187.051 109.599C187.089 109.344 187.182 109.101 187.323 108.887C187.464 108.672 187.649 108.491 187.866 108.356C188.083 108.221 188.327 108.136 188.58 108.105C188.833 108.075 189.09 108.101 189.332 108.181C189.54 108.228 189.736 108.315 189.91 108.438C190.084 108.561 190.233 108.718 190.347 108.899C190.461 109.08 190.538 109.282 190.575 109.493C190.612 109.705 190.607 109.921 190.561 110.131Z"
            fill="#FEC272" />
        <path
            d="M214.075 109.514L215.216 157.447C215.214 157.547 215.192 157.646 215.151 157.737C215.109 157.828 215.05 157.91 214.975 157.976C214.901 158.043 214.814 158.093 214.719 158.124C214.625 158.155 214.525 158.166 214.426 158.155C214.259 158.126 214.107 158.039 213.996 157.91C213.884 157.781 213.819 157.618 213.812 157.447L210.566 109.514C210.559 109.255 210.608 108.999 210.711 108.763C210.814 108.526 210.967 108.316 211.16 108.146C211.353 107.977 211.581 107.853 211.827 107.783C212.073 107.713 212.332 107.699 212.584 107.742C212.994 107.824 213.364 108.044 213.634 108.366C213.905 108.687 214.06 109.092 214.075 109.514Z"
            fill="#FEC272" />
        <path
            d="M122.913 66.0106C122.029 64.965 121.291 63.8024 120.719 62.5552L118.701 48.9106L123.351 53.2521L122.913 66.0106Z"
            fill="#738DE0" />
        <path
            d="M253.823 70.6177C251.36 75.3394 248.259 79.6929 244.61 83.5534C236.713 92.0591 223.377 101.717 203.547 101.717C189.596 101.717 179.243 97.0207 171.872 91.3503C164.936 86.0516 159.392 79.1151 155.728 71.1493L253.823 70.6177Z"
            fill="#141ED2" />
        <path
            d="M253.823 70.6177C251.36 75.3394 248.259 79.6929 244.61 83.5534C236.404 86.6561 227.863 88.7677 219.165 89.8441C198.809 92.5907 182.928 92.4135 171.872 91.3503C164.936 86.0516 159.392 79.1151 155.728 71.1493L253.823 70.6177Z"
            fill="#0109A2" />
        <path
            d="M284.708 48.3793C284.238 52.5923 283.475 56.7667 282.427 60.872C282.129 62.0036 281.655 63.0803 281.023 64.0616C279.18 67.074 275.671 70.3523 269.967 73.4533C269.002 73.9849 267.862 74.5165 266.721 75.0481C265.843 75.4911 264.966 75.8455 264.001 76.2885C262.685 76.8201 261.369 77.3517 259.965 77.8833C254.23 79.8559 248.366 81.4249 242.417 82.5792C241.89 82.6678 241.451 82.7564 240.925 82.845C239.609 83.1108 238.029 83.288 236.362 83.4652C229.343 84.2626 220.042 84.7942 210.128 84.9714C208.285 84.9714 206.443 85.06 204.6 85.06C195.212 85.1486 185.736 84.8828 177.488 84.4398C175.733 84.3512 173.978 84.2626 172.399 84.0854C168.337 83.8249 164.294 83.3219 160.291 82.5792C155.816 81.6932 151.78 80.7186 148.182 79.6554C146.691 79.2124 145.287 78.7694 143.883 78.3263C133.003 74.6937 126.422 70.2637 123 66.188C122.507 65.6413 122.066 65.0479 121.684 64.416C121.324 63.8936 121.029 63.3281 120.807 62.7326C120.525 62.1722 120.318 61.5763 120.193 60.9606C119.444 57.9279 118.887 54.8502 118.526 51.7461C118.175 48.8223 118.087 46.873 118.087 46.873L201.441 53.1637L284.796 48.4679L284.708 48.3793Z"
            fill="#99ADF9" />
        <path
            d="M284.62 48.2019C284.469 49.1095 284.04 49.9463 283.392 50.5941C281.198 53.1635 275.934 56.9734 266.984 60.4288C265.844 60.8718 264.615 61.3148 263.299 61.7578C262.685 61.935 262.071 62.2008 261.457 62.378C260.14 62.821 258.737 63.264 257.245 63.6184C251.511 65.2412 245.679 66.4843 239.784 67.3397C238.205 67.6055 236.538 67.8713 234.783 68.0485C226.545 69.1022 218.255 69.6937 209.952 69.8205C208.198 69.8205 206.355 69.9091 204.512 69.9091H204.425C195.036 69.9091 186.35 69.4661 178.541 68.7573C176.786 68.5801 175.031 68.4029 173.364 68.2257C165.686 67.372 158.067 66.0404 150.551 64.2386C149.06 63.8842 147.568 63.4412 146.164 63.0868C133.091 59.4542 124.492 54.9355 120.544 51.2143C119.853 50.5767 119.235 49.8635 118.701 49.0879C118.223 48.4466 117.948 47.6746 117.912 46.8729C117.912 40.5822 142.479 27.2035 204.863 27.2035C267.248 27.1149 284.62 43.8604 284.62 48.2019Z"
            fill="#141ED2" />
        <path
            d="M168.89 34.3799L123.264 53.2519C121.523 52.0283 119.958 50.5673 118.614 48.9105L167.398 33.5825L168.89 34.3799Z"
            fill="#0109A2" />
        <path
            d="M284.62 48.2905C284.445 49.1639 284.017 49.9654 283.392 50.5941L236.538 34.3802L238.03 33.6714L284.62 48.2905Z"
            fill="#0109A2" />
        <path
            d="M176.611 39.2532L150.552 64.15C149.06 63.7956 147.568 63.3526 146.165 62.9982L175.031 39.1646L176.611 39.2532Z"
            fill="#0109A2" />
        <path
            d="M190.913 42.177L178.541 68.7572C176.786 68.58 175.031 68.4028 173.364 68.2256L189.333 42.0884L190.913 42.177Z"
            fill="#0109A2" />
        <path
            d="M239.872 67.4282C238.293 67.694 236.538 67.9598 234.871 68.137L222.763 42.177L224.43 42.0884L239.872 67.4282Z"
            fill="#0109A2" />
        <path
            d="M209.953 69.9092C208.198 69.9092 206.355 69.9978 204.513 69.9978H204.425L206.531 43.8606L208.198 43.772L209.953 69.9092Z"
            fill="#0109A2" />
        <path
            d="M266.897 60.4288C265.756 60.8718 264.528 61.3148 263.212 61.7578L231.712 39.2532L233.379 39.1646L266.897 60.4288Z"
            fill="#0109A2" />
        <path
            d="M210.04 84.7939C208.197 84.7939 206.355 84.8825 204.512 84.8825V69.9089L209.952 69.8203L210.04 84.7939Z"
            fill="#738DE0" />
        <path
            d="M240.75 82.6678C239.346 82.9336 237.854 83.1108 236.187 83.288L234.783 68.0487L239.784 67.3398L240.75 82.6678Z"
            fill="#738DE0" />
        <path
            d="M269.88 73.3644C268.915 73.896 267.774 74.4276 266.633 74.9592L263.299 61.6691L266.897 60.4287L269.88 73.3644Z"
            fill="#738DE0" />
        <path
            d="M178.541 68.7572L177.488 84.2623C175.733 84.1737 173.978 84.0851 172.399 83.9079L173.452 68.2256L178.541 68.7572Z"
            fill="#738DE0" />
        <path
            d="M150.552 64.1499L148.095 79.4778C146.603 79.0348 145.199 78.5918 143.795 78.1488L146.077 62.998L150.552 64.1499Z"
            fill="#738DE0" />
        <path
            d="M123.352 53.4296L121.597 64.3275C121.237 63.805 120.942 63.2396 120.719 62.644C120.437 62.0836 120.231 61.4877 120.105 60.872C119.356 57.8393 118.8 54.7616 118.438 51.6575L118.701 48.9995C118.701 48.9995 120.193 50.7715 120.807 51.3917C121.333 51.9233 123.352 53.4296 123.352 53.4296Z"
            fill="#738DE0" />
        <path
            d="M200.739 54.4039C226.568 54.4039 247.506 48.4141 247.506 41.0252C247.506 33.6363 226.568 27.6465 200.739 27.6465C174.911 27.6465 153.973 33.6363 153.973 41.0252C153.973 48.4141 174.911 54.4039 200.739 54.4039Z"
            fill="#0109A2" />
        <path
            d="M243.47 38.8988C243.47 38.8988 240.048 42.7972 231.625 46.1641C225.395 48.6449 216.445 50.7713 204.162 50.7713C198.275 50.8105 192.398 50.2765 186.613 49.1765C170.206 45.9869 163.099 39.076 163.099 39.076C163.099 39.076 166.696 12.1413 189.158 3.01546C194.355 0.959586 199.896 -0.0632906 205.478 0.00303028C236.363 0.00303028 243.47 38.8988 243.47 38.8988Z"
            fill="#99ADF9" />
        <path
            d="M186.613 49.1767C170.206 45.987 163.099 39.0762 163.099 39.0762C163.099 39.0762 166.696 12.1415 189.158 3.01562C184.771 6.73686 180.471 14.1793 179.77 26.3176C179.068 35.3549 181.173 42.886 186.613 49.1767Z"
            fill="#7A97F4" />
        <path
            d="M243.47 38.8988C243.47 38.8988 240.048 42.7972 231.625 46.1641C230.746 42.954 229.632 39.8148 228.291 36.7724C228.291 36.7724 220.043 38.5444 216.358 30.6589C212.673 22.7734 221.534 17.103 221.534 17.103C221.534 17.103 219.429 10.2807 208.549 5.85069C197.669 1.42064 188.982 3.01546 188.982 3.01546C194.18 0.959586 199.721 -0.0632906 205.302 0.00303028C236.363 0.00303028 243.47 38.8988 243.47 38.8988Z"
            fill="#C2D1FF" />
        <path
            d="M208.11 22.242C209.419 22.242 210.479 21.2106 210.479 19.9384C210.479 18.6661 209.419 17.6348 208.11 17.6348C206.802 17.6348 205.741 18.6661 205.741 19.9384C205.741 21.2106 206.802 22.242 208.11 22.242Z"
            fill="#C2D1FF" />
        <path
            d="M199.862 24.4566C200.88 24.4566 201.705 23.6633 201.705 22.6846C201.705 21.706 200.88 20.9126 199.862 20.9126C198.844 20.9126 198.02 21.706 198.02 22.6846C198.02 23.6633 198.844 24.4566 199.862 24.4566Z"
            fill="#C2D1FF" />
        <path
            d="M205.39 36.4181C207.377 36.4181 208.987 34.8314 208.987 32.8741C208.987 30.9168 207.377 29.3301 205.39 29.3301C203.403 29.3301 201.792 30.9168 201.792 32.8741C201.792 34.8314 203.403 36.4181 205.39 36.4181Z"
            fill="#C2D1FF" />
    </g>
    <defs>
        <clipPath id="clip0_4533_57385">
            <rect width="400" height="206" fill="white" />
        </clipPath>
    </defs>
</svg>