<svg width="24" height="25" viewBox="0 0 24 25" fill="none" xmlns="http://www.w3.org/2000/svg">
<path fill-rule="evenodd" clip-rule="evenodd" d="M13 3.5C13 2.94772 12.5523 2.5 12 2.5C11.4477 2.5 11 2.94772 11 3.5V4.07088C7.60769 4.5561 4.99997 7.47352 4.99997 11V16L4.28237 17.2558C3.71095 18.2558 4.433 19.5 5.58474 19.5H8.12602C8.57006 21.2252 10.1362 22.5 12 22.5C13.8638 22.5 15.4299 21.2252 15.874 19.5H18.4152C19.5669 19.5 20.289 18.2558 19.7176 17.2558L19 16V11C19 7.47354 16.3923 4.55614 13 4.07089V3.5ZM6.99997 16.5311L6.44633 17.5H17.5536L17 16.5311V11C17 8.23858 14.7614 6 12 6C9.23854 6 6.99997 8.23858 6.99997 11V16.5311ZM12 20.5C11.2597 20.5 10.6134 20.0978 10.2676 19.5H13.7324C13.3866 20.0978 12.7403 20.5 12 20.5Z" fill="#667085"/>
</svg>
