<svg width="21" height="21" viewBox="0 0 21 21" fill="none" xmlns="http://www.w3.org/2000/svg">
    <g clip-path="url(#clip0_4751_166606)">
        <path fill-rule="evenodd" clip-rule="evenodd"
            d="M17.0232 16.1674L14.565 13.7093L12.9432 15.857L12.354 15.6244L12.3502 15.6229L12.3429 15.6199L12.3177 15.6098C12.2964 15.6011 12.2662 15.5887 12.2278 15.5726C12.1511 15.5403 12.0418 15.4934 11.9067 15.4325C11.637 15.311 11.2623 15.133 10.8379 14.9055C10.001 14.4566 8.92067 13.7885 8.07989 12.9477C7.23912 12.1069 6.57092 11.0266 6.12204 10.1896C5.89442 9.76515 5.71646 9.39045 5.5949 9.12071C5.53402 8.98564 5.48704 8.87633 5.45482 8.79962C5.4387 8.76125 5.42625 8.73098 5.41759 8.70968L5.40743 8.68454L5.40449 8.67719L5.40324 8.67403L5.17037 8.08418L7.3181 6.46235L4.85995 4.0042C4.37253 4.8007 3.74545 6.15519 3.74144 7.83934C3.73728 9.58586 4.40224 11.7961 6.81688 14.2107C9.23153 16.6254 11.4417 17.2903 13.1882 17.2861C14.8723 17.282 16.2267 16.6549 17.0232 16.1674ZM7.20609 8.63541L8.32246 7.79241C9.13011 7.18253 9.21224 5.99947 8.49661 5.28385L5.96653 2.75376C5.30857 2.0958 4.12105 2.06341 3.53475 2.98015C2.94133 3.90801 2.08003 5.62937 2.07478 7.83537C2.06945 10.0714 2.9444 12.6953 5.63837 15.3892C8.33235 18.0832 10.9562 18.9581 13.1922 18.9527C15.3982 18.9474 17.1195 18.086 18.0473 17.4926C18.964 16.9063 18.9316 15.7188 18.2736 15.0609L15.7435 12.5307C15.0279 11.8151 13.8448 11.8973 13.235 12.7049L12.3919 13.8213C12.1764 13.7203 11.9136 13.5911 11.6256 13.4366C10.8453 13.0182 9.93018 12.441 9.2584 11.7692C8.58662 11.0974 8.00932 10.1822 7.59082 9.40188C7.43636 9.11386 7.30711 8.85102 7.20609 8.63541Z"
            fill="#667085" />
    </g>
    <defs>
        <clipPath id="clip0_4751_166606">
            <rect width="20" height="20" fill="white" transform="translate(0.378906 0.61792)" />
        </clipPath>
    </defs>
</svg>