<svg width="400" height="206" viewBox="0 0 400 206" fill="none" xmlns="http://www.w3.org/2000/svg">
    <g clip-path="url(#clip0_4533_57841)">
        <path
            d="M208.11 22.242C209.418 22.242 210.479 21.2106 210.479 19.9384C210.479 18.6661 209.418 17.6348 208.11 17.6348C206.801 17.6348 205.741 18.6661 205.741 19.9384C205.741 21.2106 206.801 22.242 208.11 22.242Z"
            fill="#C4C2FF" />
        <path
            d="M199.862 24.4571C200.88 24.4571 201.705 23.6638 201.705 22.6851C201.705 21.7064 200.88 20.9131 199.862 20.9131C198.844 20.9131 198.02 21.7064 198.02 22.6851C198.02 23.6638 198.844 24.4571 199.862 24.4571Z"
            fill="#C4C2FF" />
        <path
            d="M326.873 174.222H305.233C304.414 174.218 303.63 173.892 303.051 173.313C302.472 172.734 302.145 171.949 302.142 171.13V148.763C302.145 147.944 302.472 147.16 303.051 146.581C303.63 146.002 304.414 145.675 305.233 145.671H326.873C327.692 145.675 328.476 146.002 329.055 146.581C329.635 147.16 329.961 147.944 329.965 148.763V171.13C329.961 171.949 329.635 172.734 329.055 173.313C328.476 173.892 327.692 174.218 326.873 174.222Z"
            fill="#C5CDFF" />
        <path
            d="M325.843 173.191H305.051C304.264 173.19 303.509 172.877 302.952 172.32C302.396 171.763 302.082 171.008 302.081 170.221V148.642C302.082 147.854 302.396 147.1 302.952 146.543C303.509 145.986 304.264 145.673 305.051 145.671H325.843C326.63 145.673 327.385 145.986 327.942 146.543C328.498 147.1 328.812 147.854 328.813 148.642V170.221C328.812 171.008 328.498 171.763 327.942 172.32C327.385 172.877 326.63 173.19 325.843 173.191Z"
            fill="#E1E3FF" />
        <path
            d="M315.659 168.403C320.48 168.403 324.388 164.495 324.388 159.674C324.388 154.853 320.48 150.945 315.659 150.945C310.839 150.945 306.931 154.853 306.931 159.674C306.931 164.495 310.839 168.403 315.659 168.403Z"
            fill="#C5CDFF" />
        <path
            d="M312.204 163.614C312.06 163.614 311.921 163.557 311.818 163.455C311.716 163.352 311.659 163.214 311.659 163.069V156.34C311.659 156.196 311.716 156.057 311.818 155.955C311.921 155.852 312.06 155.795 312.204 155.795V155.795C312.349 155.795 312.488 155.852 312.59 155.955C312.692 156.057 312.75 156.196 312.75 156.34V163.069C312.75 163.214 312.692 163.352 312.59 163.455C312.488 163.557 312.349 163.614 312.204 163.614Z"
            fill="#0109A1" />
        <path
            d="M318.508 163.614C318.363 163.614 318.225 163.557 318.122 163.455C318.02 163.352 317.962 163.214 317.962 163.069V156.34C317.962 156.196 318.02 156.057 318.122 155.955C318.225 155.852 318.363 155.795 318.508 155.795V155.795C318.653 155.795 318.791 155.852 318.894 155.955C318.996 156.057 319.054 156.196 319.054 156.34V163.069C319.054 163.214 318.996 163.352 318.894 163.455C318.791 163.557 318.653 163.614 318.508 163.614Z"
            fill="#0109A1" />
        <path
            d="M265.26 148.956C264.86 148.965 264.461 148.946 264.064 148.899C255.238 148.273 249.202 145.255 239.067 129.824C235.536 124.471 233.145 119.005 230.81 113.709C226.824 104.656 223.408 96.7978 215.664 93.1536C203.763 87.5733 192.09 96.7978 191.976 96.9117C191.734 97.1004 191.427 97.1866 191.122 97.1518C190.817 97.117 190.538 96.964 190.344 96.7256C190.15 96.4872 190.058 96.1824 190.086 95.8766C190.115 95.5707 190.262 95.2882 190.496 95.0896C191.008 94.691 203.422 84.8402 216.632 91.0467C225.173 95.0326 228.931 103.631 232.917 112.741C235.195 117.98 237.586 123.389 241.003 128.514C250.626 143.091 256.149 145.938 264.235 146.564C270.27 147.02 273.516 143.376 276.648 139.788C277.695 138.562 278.817 137.402 280.007 136.315C282.756 133.918 286.1 132.305 289.687 131.646C289.837 131.623 289.989 131.631 290.136 131.667C290.283 131.704 290.421 131.769 290.543 131.859C290.664 131.948 290.767 132.061 290.845 132.191C290.923 132.321 290.975 132.464 290.997 132.614C291.019 132.763 291.012 132.916 290.976 133.063C290.939 133.209 290.874 133.347 290.784 133.469C290.694 133.591 290.581 133.693 290.452 133.771C290.322 133.849 290.179 133.901 290.029 133.923C286.894 134.565 283.974 135.996 281.545 138.08C280.431 139.092 279.385 140.176 278.413 141.326C275.224 144.97 271.694 148.956 265.26 148.956Z"
            fill="#0109A1" />
        <path
            d="M298.4 127.717L303.183 123.674C303.298 123.577 303.431 123.504 303.574 123.46C303.717 123.416 303.868 123.401 304.017 123.417C304.166 123.433 304.311 123.48 304.442 123.553C304.572 123.627 304.687 123.726 304.778 123.845C304.946 124.066 305.022 124.344 304.99 124.62C304.958 124.896 304.821 125.148 304.607 125.326L299.767 129.596L298.4 127.717Z"
            fill="#0109A1" />
        <path
            d="M295.439 124.3L300.222 120.257C300.336 120.16 300.469 120.087 300.613 120.043C300.756 119.999 300.907 119.984 301.056 120C301.205 120.016 301.349 120.063 301.48 120.136C301.611 120.21 301.725 120.309 301.816 120.428C301.984 120.649 302.06 120.927 302.028 121.203C301.997 121.479 301.859 121.731 301.646 121.909L296.806 126.179L295.439 124.3Z"
            fill="#0109A1" />
        <path
            d="M301.76 129.823C300.272 131.521 298.674 133.118 296.977 134.606C294.073 137.112 290.315 136.656 288.607 134.72C288.493 134.606 288.436 134.493 288.322 134.379C287.53 133.373 287.158 132.099 287.286 130.824C287.413 129.55 288.03 128.375 289.005 127.546C291.34 125.382 295.212 122.307 295.212 122.307L299.881 127.717L301.76 129.823Z"
            fill="#E1E3FF" />
        <path
            d="M301.76 129.824C300.272 131.521 298.674 133.119 296.977 134.607C294.073 137.112 290.315 136.657 288.606 134.721C288.493 134.607 288.436 134.493 288.322 134.379C290.383 134.387 292.401 133.793 294.13 132.671C296.162 131.18 298.067 129.523 299.824 127.717L301.76 129.824Z"
            fill="#C5CDFF" />
        <path
            d="M328.085 140.641C330.138 141.331 331.976 142.543 333.419 144.157C335.662 146.824 335.965 151.128 335.965 151.128L348.21 145.43C348.21 145.43 342.027 147.794 339.966 143.672C337.905 139.55 344.755 133.003 344.755 133.003C344.755 133.003 337.177 139.186 334.207 138.277C331.237 137.368 330.752 133.67 330.752 133.67L328.085 140.641Z"
            fill="#FEC272" />
        <path d="M316.508 139.247L318.69 139.308L322.085 114.455L314.386 113L316.508 139.247Z"
            fill="#D2D6FF" />
        <path d="M321.842 139.368L326.934 116.091L334.268 119.667L323.175 139.974L321.842 139.368Z"
            fill="#D2D6FF" />
        <path
            d="M177.646 186.807H139.653C130.273 186.807 128.481 189.02 132.433 190.653C136.386 192.287 117.468 191.497 114.253 194.395C110.986 197.293 119.312 198.4 128.323 198.4H200.727C207.946 198.4 206.155 193.13 201.834 192.445C197.513 191.76 208.842 192.709 213.163 191.18C217.484 189.652 214.375 186.807 177.646 186.807Z"
            fill="#7A97F4" />
        <path
            d="M233.082 196.45C231.976 197.978 228.287 198.347 222.016 198.189C217.274 198.031 212.32 197.662 212.32 195.449C212.32 193.235 224.388 193.499 228.603 193.973C232.239 194.395 233.715 195.554 233.082 196.45Z"
            fill="#C5C8FF" />
        <path
            d="M123.896 189.072C123.158 190.179 120.628 190.495 116.202 190.495C112.882 190.495 109.404 190.337 109.299 188.809C109.193 187.228 117.677 187.175 120.681 187.439C123.211 187.65 124.317 188.387 123.896 189.072Z"
            fill="#C5C8FF" />
        <path
            d="M204.714 183.712L204.482 183.651C200.553 182.551 192.325 172.123 190.665 167.837C188.947 163.536 187.78 158.326 191.81 156.226C192.718 155.798 193.729 155.635 194.727 155.755C196.579 155.947 198.295 156.821 199.54 158.206C201.849 160.74 207.273 171.916 208.45 176.384C209.585 180.78 208.5 184.651 204.714 183.712Z"
            fill="#0109A1" />
        <path
            d="M204.714 183.712C205.386 183.517 205.945 183.045 206.6 181.977C207.716 180.1 206.759 175.503 202.142 165.968C199.381 160.212 196.511 157.22 194.726 155.755C196.579 155.947 198.294 156.821 199.539 158.206C201.848 160.74 207.272 171.916 208.45 176.384C209.584 180.78 208.499 184.65 204.714 183.712Z"
            fill="#141ED2" />
        <path
            d="M190.397 158.521C191.406 157.05 194.694 158.229 196.843 161.838C198.992 165.446 201.914 172.237 200.168 174.382C198.422 176.527 194.767 173.452 192.234 169.183C189.7 164.915 188.779 160.886 190.397 158.521Z"
            fill="#0109A1" />
        <path
            d="M195.789 167.703C195.465 168.743 194.915 169.699 194.18 170.504C194.18 170.504 176.616 173.806 160.67 155.01C144.438 135.89 148.947 118.589 148.993 118.415C161.838 111.136 170.426 125.134 170.426 125.134C169.894 129.628 170.074 134.178 170.959 138.616C171.807 142.687 173.452 147.031 176.52 150.448C181.152 155.559 187.465 158.835 194.31 159.679C194.31 159.679 196.013 160.75 196.18 164.579C196.307 165.637 196.172 166.709 195.789 167.703Z"
            fill="#E1E3FF" />
        <path
            d="M195.789 167.703C195.465 168.743 194.915 169.699 194.18 170.504C194.18 170.504 176.616 173.806 160.67 155.01C144.438 135.89 148.947 118.589 148.993 118.415C161.838 111.136 170.426 125.134 170.426 125.134C169.894 129.628 170.074 134.178 170.959 138.616C169.113 139.406 167.159 139.915 165.162 140.125C162.851 140.135 160.548 139.86 158.304 139.305C158.304 139.305 164.229 156.571 178.025 163.071C185.503 166.474 191.689 167.488 195.789 167.703Z"
            fill="#C5CDFF" />
        <path
            d="M173.14 164.881C172.984 164.839 172.845 164.748 172.744 164.621C172.644 164.494 172.587 164.338 172.582 164.176C172.571 164.071 172.581 163.965 172.611 163.864C172.642 163.763 172.692 163.67 172.76 163.589C172.828 163.508 172.911 163.442 173.005 163.395C173.099 163.347 173.202 163.319 173.307 163.312C173.365 163.327 176.819 162.937 178.421 160.63C179.412 159.287 179.911 157.645 179.837 155.978C179.813 155.774 179.869 155.568 179.994 155.404C180.118 155.241 180.3 155.131 180.503 155.099C180.708 155.075 180.913 155.132 181.077 155.256C181.24 155.38 181.35 155.563 181.382 155.766C181.489 157.822 180.886 159.854 179.675 161.52C177.599 164.446 173.592 164.815 173.403 164.827C173.37 164.861 173.327 164.885 173.28 164.894C173.233 164.904 173.185 164.9 173.14 164.881Z"
            fill="#C5CDFF" />
        <path
            d="M161.262 155.353C161.166 155.332 161.074 155.292 160.993 155.236C160.912 155.18 160.843 155.108 160.789 155.025C160.736 154.941 160.7 154.848 160.684 154.751C160.667 154.653 160.67 154.554 160.692 154.457C160.742 154.26 160.862 154.088 161.029 153.972C161.197 153.857 161.401 153.806 161.603 153.829C161.661 153.844 165.798 154.627 168.533 152.496C170.158 151.254 171.336 149.518 171.888 147.549C171.925 147.345 172.042 147.164 172.213 147.046C172.384 146.929 172.594 146.883 172.798 146.921C173.002 146.958 173.183 147.075 173.301 147.246C173.419 147.417 173.464 147.628 173.426 147.832C172.834 150.193 171.45 152.281 169.506 153.746C166.169 156.277 161.51 155.356 161.262 155.353Z"
            fill="#C5CDFF" />
        <path
            d="M136.666 137.125C136.275 137.618 135.824 138.062 135.324 138.445C134.456 139.113 133.443 139.568 132.367 139.774C131.622 139.939 130.855 139.987 130.095 139.918C130.095 139.918 124.016 129.811 120.622 113.772C117.212 97.7923 120.981 81.4133 120.981 81.4133C121.668 81.2459 122.365 81.1191 123.067 81.0337C125.141 80.7852 127.245 81.0842 129.167 81.901C130.597 82.4761 131.89 83.3463 132.961 84.4546C132.961 84.4546 129.869 98.0341 131.422 111.414C132.959 124.851 138.019 133.883 138.019 133.883C137.865 135.065 137.398 136.184 136.666 137.125Z"
            fill="#E1E3FF" />
        <path
            d="M136.666 137.125C134.712 134.188 131.203 127.738 129.141 116.52C126.672 103.085 128.472 87.1161 129.225 81.9165C130.655 82.4917 131.947 83.3618 133.018 84.4701C133.018 84.4701 129.926 98.0496 131.479 111.429C133.017 124.867 138.077 133.899 138.077 133.899C137.882 135.075 137.397 136.184 136.666 137.125Z"
            fill="#F8FBFF" />
        <path
            d="M132.368 139.774C131.622 139.939 130.856 139.988 130.095 139.918C130.095 139.918 124.017 129.811 120.622 113.773C117.212 97.7925 120.982 81.4135 120.982 81.4135C121.669 81.2461 122.365 81.1194 123.068 81.0339C122.094 86.3615 119.472 104.036 124.036 119.639C127.183 130.275 130.331 136.444 132.368 139.774Z"
            fill="#C5CDFF" />
        <path
            d="M146.343 152.403C144.054 152.959 141.642 152.695 139.528 151.657C136.204 149.91 135.177 148.397 135.177 148.397C135.177 148.397 134.476 146.351 135.607 145.594L135.754 145.509C136.664 145.088 137.673 144.925 138.67 145.039C139.546 146.194 140.564 147.234 141.699 148.135C143.07 149.056 145.876 149.239 146.693 150.137C146.851 150.332 146.947 150.568 146.97 150.817C146.992 151.066 146.94 151.317 146.82 151.536C146.731 151.858 146.568 152.155 146.343 152.403Z"
            fill="#E1E3FF" />
        <path
            d="M146.343 152.403C144.054 152.958 141.642 152.695 139.528 151.657C136.204 149.91 135.176 148.397 135.176 148.397C135.176 148.397 134.476 146.35 135.607 145.594C136.39 146.856 138.317 149.661 141.126 150.776C142.931 151.497 144.888 151.759 146.82 151.536C146.731 151.858 146.567 152.155 146.343 152.403Z"
            fill="#C5CDFF" />
        <path
            d="M145.67 150.487C143.233 150.255 140.951 149.192 139.205 147.476C138.415 146.782 137.815 145.897 137.464 144.906C137.568 144.528 137.746 144.174 137.988 143.865C138.229 143.556 138.529 143.298 138.871 143.106C139.442 142.822 140.242 142.848 141.31 143.502C141.31 143.502 143.051 146.072 147.174 145.734C151.297 145.396 151.279 144.523 152.153 144.505C152.779 144.485 153.303 145.554 153.216 146.586C153.208 147.06 153.043 147.518 152.748 147.89C151.81 148.786 150.698 149.48 149.48 149.927C148.262 150.374 146.965 150.564 145.67 150.487Z"
            fill="#E1E3FF" />
        <path
            d="M145.67 150.487C143.234 150.255 140.951 149.192 139.206 147.476C138.415 146.782 137.815 145.898 137.465 144.906C137.569 144.528 137.746 144.174 137.988 143.865C138.229 143.556 138.529 143.298 138.871 143.106C139.895 144.866 142.252 148.157 145.727 148.393C148.36 148.507 150.973 147.887 153.275 146.602C153.266 147.076 153.101 147.534 152.806 147.905C151.85 148.791 150.726 149.476 149.5 149.92C148.274 150.363 146.972 150.556 145.67 150.487Z"
            fill="#C5CDFF" />
        <path
            d="M146.044 146.491C143.728 146.283 141.559 145.27 139.912 143.63C139.151 142.987 138.578 142.149 138.256 141.206C138.46 140.472 138.937 139.843 139.589 139.449C140.161 139.165 140.903 139.175 141.913 139.815C141.913 139.815 143.569 142.238 147.502 141.912C151.435 141.586 151.403 140.771 152.218 140.738C152.786 140.702 153.31 141.771 153.239 142.745C153.233 143.2 153.073 143.639 152.786 143.991C151.9 144.857 150.842 145.527 149.681 145.958C148.519 146.389 147.28 146.57 146.044 146.491Z"
            fill="#E1E3FF" />
        <path
            d="M146.044 146.492C143.729 146.283 141.559 145.271 139.912 143.63C139.151 142.988 138.579 142.15 138.257 141.207C138.46 140.472 138.937 139.843 139.59 139.449C140.513 141.121 142.785 144.265 146.086 144.455C148.581 144.542 151.053 143.951 153.239 142.746C153.233 143.2 153.073 143.639 152.786 143.991C151.901 144.858 150.843 145.528 149.681 145.959C148.52 146.389 147.281 146.571 146.044 146.492Z"
            fill="#C5CDFF" />
        <path
            d="M146.403 143.483C144.306 143.625 142.224 143.031 140.518 141.804C139.762 141.34 139.143 140.684 138.724 139.903C138.765 139.562 138.876 139.233 139.05 138.937C139.224 138.642 139.458 138.385 139.736 138.184C140.192 137.87 140.891 137.807 141.904 138.199C141.904 138.199 143.698 140.1 147.186 139.346C150.689 138.534 150.568 137.82 151.298 137.64C151.823 137.531 152.409 138.368 152.484 139.257C152.522 139.665 152.435 140.075 152.236 140.432C150.764 142.172 148.671 143.267 146.403 143.483Z"
            fill="#E1E3FF" />
        <path
            d="M146.403 143.483C144.306 143.625 142.225 143.031 140.518 141.804C139.762 141.34 139.143 140.684 138.724 139.903C138.765 139.562 138.876 139.233 139.05 138.938C139.224 138.642 139.458 138.386 139.737 138.185C140.81 139.523 143.192 142.014 146.179 141.749C148.455 141.514 150.619 140.645 152.426 139.242C152.464 139.65 152.378 140.06 152.178 140.417C151.47 141.289 150.594 142.01 149.602 142.537C148.61 143.064 147.522 143.386 146.403 143.483Z"
            fill="#C5CDFF" />
        <path
            d="M145.11 140.162C144.752 140.906 144.354 141.629 143.917 142.329C142.986 143.912 141.813 145.34 140.441 146.561C139.878 146.992 139.279 147.373 138.65 147.701C137.59 148.305 136.394 148.63 135.174 148.644C135.174 148.644 131.842 143.172 130.949 141.385C130.361 140.246 129.842 139.072 129.395 137.871C129.484 136.705 129.786 135.565 130.284 134.507C130.694 133.561 131.36 132.748 132.207 132.161C132.631 131.925 133.077 131.731 133.539 131.582C134.99 131.351 136.476 131.655 137.719 132.438C137.719 132.438 141.306 136.241 142.944 137.79C143.748 138.502 144.474 139.297 145.11 140.162Z"
            fill="#E1E3FF" />
        <path
            d="M145.109 140.163C144.751 140.906 144.353 141.63 143.916 142.33C142.586 141.022 141.336 139.635 140.174 138.176C138.095 135.848 135.88 133.647 133.539 131.583C134.99 131.351 136.475 131.656 137.718 132.439C137.718 132.439 141.306 136.241 142.944 137.791C143.748 138.503 144.474 139.298 145.109 140.163Z"
            fill="#F8FBFF" />
        <path
            d="M138.665 147.644C137.592 148.217 136.404 148.539 135.189 148.587C135.189 148.587 131.873 143.057 130.964 141.328C130.377 140.189 129.858 139.015 129.41 137.814C129.5 136.648 129.801 135.508 130.299 134.45C131.561 136.955 134.996 143.448 137.778 146.541C138.092 146.996 138.437 147.336 138.665 147.644Z"
            fill="#C5CDFF" />
        <path
            d="M126 128.412C125.511 128.242 125.052 127.995 124.642 127.68C124.501 127.541 124.419 127.353 124.414 127.155C124.408 126.957 124.479 126.764 124.612 126.618C124.672 126.543 124.746 126.482 124.83 126.436C124.914 126.391 125.006 126.362 125.101 126.353C125.196 126.343 125.291 126.353 125.383 126.381C125.474 126.408 125.559 126.454 125.632 126.515C125.675 126.588 127.1 127.771 129.614 126.946C132.128 126.121 132.935 124.473 132.951 124.415C132.983 124.322 133.035 124.237 133.103 124.166C133.172 124.095 133.255 124.04 133.347 124.005C133.44 123.97 133.538 123.956 133.637 123.964C133.735 123.971 133.83 124.001 133.916 124.05C134.09 124.147 134.222 124.306 134.286 124.495C134.351 124.683 134.344 124.889 134.266 125.073C134.236 125.189 133.216 127.402 130.015 128.48C128.699 128.855 127.302 128.831 126 128.412Z"
            fill="#C5CDFF" />
        <path
            d="M122.874 115.112C122.177 114.847 121.521 114.486 120.924 114.038C120.783 113.899 120.702 113.711 120.696 113.513C120.691 113.315 120.762 113.122 120.895 112.976C120.949 112.903 121.018 112.843 121.096 112.798C121.174 112.753 121.261 112.724 121.351 112.713C121.44 112.702 121.531 112.709 121.618 112.734C121.705 112.759 121.786 112.801 121.857 112.857C121.899 112.931 123.669 114.453 126.659 113.94C129.576 113.47 130.484 111.91 130.515 111.794C130.554 111.709 130.61 111.633 130.68 111.57C130.75 111.508 130.833 111.46 130.922 111.431C131.012 111.403 131.106 111.393 131.199 111.402C131.293 111.412 131.383 111.441 131.465 111.487C131.628 111.602 131.741 111.774 131.781 111.969C131.822 112.164 131.787 112.367 131.684 112.538C131.653 112.654 130.402 114.805 126.755 115.455C125.454 115.69 124.114 115.571 122.874 115.112Z"
            fill="#C5CDFF" />
        <path
            d="M121.914 100.897C120.981 100.631 120.151 100.087 119.534 99.3377C119.424 99.17 119.38 98.968 119.41 98.7699C119.439 98.5718 119.54 98.3914 119.694 98.263C119.765 98.1941 119.851 98.1424 119.945 98.1118C120.039 98.0812 120.139 98.0726 120.237 98.0865C120.336 98.1004 120.429 98.1366 120.511 98.1923C120.593 98.2479 120.661 98.3215 120.71 98.4075C120.768 98.4228 121.784 99.7461 124.779 99.9171C128.575 100.113 129.929 98.9818 130.002 98.9391C130.074 98.8725 130.158 98.8217 130.25 98.7897C130.342 98.7578 130.44 98.7455 130.537 98.7536C130.635 98.7618 130.729 98.7902 130.815 98.837C130.9 98.8839 130.975 98.9481 131.034 99.0256C131.144 99.1933 131.188 99.3953 131.159 99.5934C131.129 99.7915 131.028 99.9719 130.874 100.1C130.712 100.244 128.992 101.589 124.686 101.444C123.74 101.4 122.806 101.216 121.914 100.897Z"
            fill="#C5CDFF" />
        <path
            d="M133.058 93.4785C130.102 93.9806 127.072 93.8158 124.188 92.9962C122.389 92.5399 120.705 91.7146 119.243 90.5727C118.696 90.1572 118.221 89.6542 117.837 89.0841C117.837 89.0841 118.171 88.0554 118.901 84.5872C121.172 73.6452 126.412 73.5406 129.633 74.2676C130.401 74.468 131.133 74.7871 131.803 75.2133C132.888 75.988 133.779 77.0042 134.405 78.1817C135.03 79.3593 135.374 80.6661 135.409 81.9991C135.46 85.7979 133.058 93.4785 133.058 93.4785Z"
            fill="#0109A1" />
        <path
            d="M128.683 81.1533C124.507 82.1598 123.337 80.4852 123.337 80.4852C123.337 80.4852 121.685 83.2135 119.731 88.9646C119.519 89.5293 119.366 90.1093 119.186 90.558C118.638 90.1425 118.163 89.6396 117.779 89.0695C117.779 89.0695 118.113 88.0407 118.844 84.5725C121.114 73.6306 126.354 73.5259 129.575 74.2529C130.343 74.4534 131.076 74.7724 131.745 75.1987C132.26 77.01 132.522 80.2441 128.683 81.1533Z"
            fill="#141ED2" />
        <path
            d="M197.97 118.822C197.551 119.704 197.147 120.528 196.685 121.337C193.867 126.363 190.282 130.07 186.108 132.008C174.145 137.596 159.538 138.39 145.211 122.628C133.767 110.048 126.413 86.4478 123.9 77.4065C123.261 75.1278 122.945 73.7411 122.945 73.7411C122.945 73.7411 130.998 75.4349 145.045 73.0031C151.987 71.7465 158.808 69.895 165.433 67.4692C178.828 62.5694 187.329 56.9349 192.617 52.1887C198.861 46.6405 200.664 42.4008 200.664 42.4008C200.664 42.4008 201.23 44.7221 201.964 49.6942C203.312 59.9165 204.073 70.2076 204.244 80.517C204.616 96.2528 202.358 109.494 197.97 118.822Z"
            fill="#E1E3FF" />
        <path
            d="M201.964 49.6943C199.478 52.4752 196.782 55.0614 193.901 57.4302C185.643 64.0359 176.237 69.0607 166.156 72.252C159.729 74.4025 153.137 76.0228 146.446 77.0965C134.91 78.9506 127.5 78.1095 123.858 77.3332C123.219 75.0546 122.903 73.6679 122.903 73.6679C122.903 73.6679 130.956 75.3617 145.003 72.9299C151.945 71.6732 158.766 69.8218 165.391 67.3959C178.786 62.4962 187.287 56.8616 192.575 52.1155C198.819 46.5672 200.622 42.3276 200.622 42.3276C201.198 44.7579 201.646 47.2169 201.964 49.6943Z"
            fill="#0109A1" />
        <path
            d="M196.685 121.337C193.868 126.363 190.282 130.07 186.109 132.008C174.145 137.596 159.539 138.39 145.212 122.628C133.767 110.048 126.413 86.4478 123.9 77.4065C123.261 75.1278 122.945 73.7412 122.945 73.7412C122.945 73.7412 130.999 75.4349 145.045 73.0032C147.952 81.9624 154.673 100.679 162.936 112.853C172.525 127.053 188.437 124.37 196.685 121.337Z"
            fill="#C5CDFF" />
        <path
            d="M146.43 77.1552C134.894 79.0093 127.484 78.1681 123.842 77.3919C123.203 75.1132 122.887 73.7265 122.887 73.7265C122.887 73.7265 130.94 75.4203 144.987 72.9885C145.407 74.2165 145.897 75.6492 146.43 77.1552Z"
            fill="#0109A1" />
        <path
            d="M197.833 112.767C197.962 106.409 197.982 98.3477 197.603 89.6841C197.034 75.6337 195.161 64.4035 193.816 59.3942C198.691 55.0355 199.897 53.0579 199.897 53.0579C199.897 53.0579 200.337 54.9119 200.926 58.7907C201.969 66.7866 202.556 74.8353 202.685 82.8979C203.045 95.1556 201.306 105.494 197.833 112.767Z"
            fill="#F8FBFF" />
        <path
            d="M201.964 49.6943C199.478 52.4752 196.782 55.0614 193.9 57.4302C193.448 55.3869 193.049 53.6062 192.632 52.1309C198.877 46.5826 200.68 42.3429 200.68 42.3429C200.68 42.3429 201.273 44.7956 201.964 49.6943Z"
            fill="#141ED2" />
        <path
            d="M166.673 109.745C166.673 109.745 160.41 112.31 148.631 113.914C145.351 114.35 142.175 114.628 139.334 114.808L138.822 113.928C133.283 104.832 129.05 93.8466 126.365 85.6907C126.182 85.208 126.057 84.7407 125.917 84.3313C132.405 84.3025 138.88 83.7515 145.279 82.6836C156.231 80.9236 159.246 79.6105 159.246 79.6105L166.673 109.745Z"
            fill="#E1E3FF" />
        <path
            d="M165.065 109.258C165.065 109.258 159.37 111.787 148.351 113.095C144.955 113.501 141.605 113.732 138.765 113.913C133.226 104.816 128.992 93.8311 126.307 85.6752L127.296 85.6884C133.295 85.6282 139.28 85.1147 145.202 84.1522C155.323 82.4829 158.228 81.8232 158.228 81.8232L165.065 109.258Z"
            fill="#0109A1" />
        <path
            d="M138.596 104.685C138.406 104.639 138.238 104.529 138.12 104.373L133.242 97.0024L132.514 98.1132C132.456 98.2012 132.381 98.2765 132.293 98.3347C132.205 98.3929 132.107 98.4327 132.003 98.4517C131.899 98.4708 131.793 98.4686 131.69 98.4454C131.588 98.4221 131.491 98.3783 131.405 98.3166C131.317 98.2587 131.242 98.1836 131.184 98.0958C131.125 98.008 131.086 97.9094 131.067 97.8058C131.048 97.7021 131.05 97.5958 131.073 97.493C131.096 97.3903 131.14 97.2933 131.202 97.2079L132.627 95.1024C132.705 94.9964 132.803 94.9075 132.917 94.8415C133.03 94.7754 133.156 94.7334 133.287 94.7183C133.425 94.7256 133.56 94.7627 133.682 94.8272C133.804 94.8916 133.911 94.9818 133.995 95.0915L138.303 101.567L138.611 99.2278C138.622 99.0502 138.696 98.8826 138.821 98.7558C138.946 98.6291 139.112 98.5518 139.29 98.5384L160.681 95.317C160.787 95.2995 160.896 95.3033 161.001 95.3282C161.105 95.3531 161.204 95.3985 161.292 95.462C161.379 95.5254 161.452 95.6056 161.508 95.6978C161.564 95.7899 161.601 95.8923 161.617 95.9989C161.635 96.1053 161.631 96.2141 161.606 96.319C161.581 96.4239 161.536 96.5228 161.472 96.61C161.409 96.6971 161.329 96.7708 161.237 96.8267C161.144 96.8827 161.042 96.9197 160.935 96.9357L140.128 100.063L139.654 103.971C139.637 104.139 139.568 104.297 139.457 104.423C139.345 104.55 139.197 104.638 139.033 104.676C138.889 104.7 138.741 104.703 138.596 104.685Z"
            fill="#FFCE94" />
        <path
            d="M200.664 42.4009C200.664 42.4009 198.154 48.3774 189.2 55.2573C184.054 59.2341 176.721 63.5018 166.457 67.1191C149.613 73.0933 137.272 74.2382 130.068 74.2584C127.663 74.3067 125.259 74.1284 122.887 73.7259C122.887 73.7259 114.888 45.0532 123.213 23.1762C125.399 17.4864 128.484 13.0892 132.268 9.80731C134.967 7.43643 138.067 5.56583 141.422 4.28337C151.018 0.613428 162.401 1.44943 172.62 5.515C191.249 12.9817 200.664 42.4009 200.664 42.4009Z"
            fill="#FEC272" />
        <path
            d="M200.664 42.401C200.664 42.401 199.523 45.0779 196.154 48.9037C194.05 51.2673 191.715 53.4152 189.185 55.3155C184.039 59.2922 176.705 63.5599 166.442 67.1772C148.312 73.5563 135.363 74.4165 128.511 74.2813C126.621 74.2581 124.736 74.0918 122.872 73.784C122.918 73.61 126.501 60.2845 152.67 49.0796C179 37.7314 200.664 42.401 200.664 42.401Z"
            fill="#FCAD4F" />
        <path
            d="M196.154 48.9035C194.05 51.2671 191.715 53.415 189.185 55.3153C184.038 59.292 176.705 63.5597 166.441 67.177C148.312 73.5561 135.363 74.4163 128.511 74.2812C132.419 69.3565 139.931 62.5301 154.421 56.3061C167.554 50.5838 181.854 48.0473 196.154 48.9035V48.9035Z"
            fill="#F99D3A" />
        <path
            d="M200.665 42.4015C200.665 42.4015 198.155 48.378 189.2 55.258C188.079 51.0792 186.65 46.9889 184.925 43.0208C184.925 43.0208 174.36 48.4822 168.856 41.1326C163.367 33.725 171.285 24.8958 171.285 24.8958C167.503 18.5679 162.028 13.4239 155.476 10.0452C150.936 7.74226 146.216 5.81045 141.365 4.26869C150.96 0.598755 162.343 1.43475 172.563 5.50033C191.249 12.9823 200.665 42.4015 200.665 42.4015Z"
            fill="#FFDBB3" />
        <path
            d="M130.127 74.2737C127.721 74.322 125.317 74.1438 122.945 73.7412C122.945 73.7412 114.946 45.0686 123.271 23.1915C125.457 17.5017 128.543 13.1045 132.326 9.82263C127.728 22.5841 125.669 36.1212 126.264 49.6727C126.692 57.9851 127.986 66.2302 130.127 74.2737Z"
            fill="#FFDBB3" />
        <path
            d="M169.668 192.819C169.579 193.19 169.462 193.553 169.319 193.906C168.183 197.267 157.515 195.131 150.115 193.548C142.83 191.995 135.768 187.957 139.007 186.269L139.154 186.183C141.423 185.108 145.495 184.26 149.88 183.867C152.42 183.623 154.973 183.531 157.524 183.591C160.855 183.665 167.634 183.843 169.309 185.96C169.653 186.421 169.894 186.95 170.015 187.512C170.309 189.285 170.19 191.1 169.668 192.819Z"
            fill="#0109A1" />
        <path
            d="M169.668 192.819C169.579 193.189 169.462 193.552 169.319 193.905C168.182 197.266 157.515 195.13 150.115 193.547C142.83 191.994 135.768 187.957 139.007 186.268C140.328 187.61 143.459 189.616 150.67 191.212C160.522 193.38 166.867 193.32 169.668 192.819Z"
            fill="#141ED2" />
        <path
            d="M169.956 187.496C169.179 187.886 168.353 188.169 167.5 188.336C164.348 188.993 155.481 188.263 150.549 186.029C148.394 185.025 148.752 184.375 149.821 183.851C152.361 183.607 154.914 183.515 157.465 183.575C160.796 183.648 167.575 183.826 169.249 185.944C169.594 186.405 169.835 186.934 169.956 187.496Z"
            fill="#0109A1" />
        <path
            d="M164.263 156.207C162.66 171.669 168.124 185.275 168.124 185.275C167.218 185.97 166.196 186.498 165.106 186.836C164.197 187.118 163.256 187.286 162.305 187.337C160.727 187.346 159.161 187.059 157.689 186.489C156.736 186.133 155.812 185.702 154.927 185.201C154.927 185.201 145.404 162.765 149.215 141.061C153.027 119.356 167.274 111.703 167.274 111.703C167.371 111.679 167.465 111.641 167.552 111.59C169.719 110.934 172.026 110.888 174.218 111.456C176.41 112.024 178.404 113.185 179.98 114.812C180.342 115.149 180.682 115.508 180.999 115.888C184.885 120.204 184.753 123.52 184.753 123.52C182.023 124.968 179.525 126.818 177.345 129.009C173.894 132.441 165.867 140.745 164.263 156.207Z"
            fill="#E1E3FF" />
        <path
            d="M164.264 156.206C162.66 171.668 168.124 185.275 168.124 185.275C167.218 185.969 166.196 186.498 165.106 186.835C162.42 179.858 156.959 159.427 161.767 142.64C166.134 127.287 176.974 118.672 181.057 115.903C184.943 120.219 184.811 123.535 184.811 123.535C182.081 124.983 179.583 126.833 177.403 129.024C173.894 132.44 165.867 140.744 164.264 156.206Z"
            fill="#C5CDFF" />
        <path
            d="M157.646 186.417C156.693 186.061 155.77 185.63 154.884 185.128C154.884 185.128 145.361 162.693 149.173 140.988C152.984 119.284 167.231 111.63 167.231 111.63C167.329 111.606 167.422 111.568 167.509 111.518C164.109 115.459 156.083 125.873 153.053 139.221C149.142 156.369 153.044 171.425 156 181.141C156.541 183.084 157.129 184.853 157.646 186.417Z"
            fill="#F8FBFF" />
        <path
            d="M150.61 168.423C150.51 168.402 150.416 168.358 150.336 168.293C150.256 168.229 150.192 168.147 150.15 168.053C150.041 167.872 150.004 167.656 150.047 167.449C150.091 167.242 150.21 167.058 150.383 166.936C152.191 165.986 154.196 165.474 156.238 165.442C159.936 165.303 163.4 167.459 163.559 167.563C163.739 167.68 163.866 167.863 163.915 168.072C163.964 168.282 163.93 168.502 163.82 168.687C163.703 168.867 163.52 168.995 163.311 169.043C163.101 169.092 162.881 169.058 162.696 168.948C162.638 168.933 159.492 166.985 156.304 167.073C153.1 167.219 151.267 168.286 151.252 168.344C151.159 168.408 151.053 168.449 150.941 168.463C150.829 168.477 150.716 168.463 150.61 168.423Z"
            fill="#C5CDFF" />
        <path
            d="M149.538 148.282C149.394 148.249 149.263 148.176 149.159 148.072C149.055 147.967 148.982 147.836 148.949 147.692C148.916 147.586 148.905 147.475 148.917 147.365C148.928 147.255 148.962 147.149 149.017 147.053C149.071 146.956 149.145 146.873 149.233 146.806C149.322 146.74 149.423 146.692 149.531 146.667C152.152 146.019 154.882 145.937 157.538 146.424C160.174 147.048 162.551 148.479 164.337 150.517C164.408 150.598 164.462 150.694 164.495 150.797C164.528 150.9 164.539 151.009 164.528 151.116C164.517 151.224 164.484 151.328 164.431 151.423C164.378 151.517 164.306 151.6 164.22 151.665C164.138 151.736 164.043 151.79 163.94 151.823C163.837 151.856 163.728 151.867 163.62 151.856C163.512 151.845 163.408 151.812 163.314 151.759C163.219 151.706 163.137 151.634 163.072 151.548C163.014 151.532 160.65 148.736 157.182 148.006C154.771 147.559 152.291 147.645 149.917 148.258C149.828 148.359 149.654 148.313 149.538 148.282Z"
            fill="#C5CDFF" />
        <path
            d="M169.481 137.167C169.38 137.146 169.286 137.101 169.206 137.037C169.126 136.973 169.062 136.891 169.02 136.797C168.978 136.724 165.712 131.703 161.558 130.047C157.52 128.421 154.492 129.545 154.477 129.603C154.275 129.675 154.053 129.667 153.856 129.581C153.66 129.494 153.504 129.336 153.421 129.138C153.349 128.936 153.357 128.714 153.443 128.517C153.53 128.321 153.688 128.165 153.886 128.082C154.033 127.996 157.558 126.632 162.204 128.542C166.791 130.437 170.243 135.693 170.429 135.928C170.491 136.016 170.534 136.115 170.556 136.22C170.577 136.324 170.577 136.433 170.555 136.537C170.534 136.642 170.49 136.742 170.428 136.829C170.367 136.916 170.287 136.99 170.196 137.045C169.974 137.155 169.726 137.197 169.481 137.167Z"
            fill="#C5CDFF" />
        <path
            d="M224.47 134.077C222.988 136.312 220.821 138.004 218.293 138.899C214.215 140.241 212.182 139.952 212.182 139.952C212.182 139.952 210.012 139.006 210.395 137.556L210.441 137.382C210.867 136.345 211.556 135.436 212.441 134.746C214.085 134.888 215.74 134.846 217.376 134.623C219.214 134.24 221.644 132.089 222.997 132.137C223.273 132.158 223.536 132.259 223.756 132.428C223.976 132.596 224.142 132.824 224.236 133.085C224.382 133.396 224.462 133.734 224.47 134.077Z"
            fill="#E1E3FF" />
        <path
            d="M224.47 134.078C222.988 136.312 220.82 138.005 218.293 138.899C214.215 140.242 212.182 139.953 212.182 139.953C212.182 139.953 210.012 139.007 210.395 137.557C211.992 137.855 215.826 138.372 218.988 136.973C221.028 136.09 222.831 134.738 224.251 133.027C224.386 133.361 224.46 133.717 224.47 134.078Z"
            fill="#C5CDFF" />
        <path
            d="M222.4 133.22C220.226 134.995 217.539 136.026 214.736 136.159C213.577 136.297 212.401 136.136 211.322 135.691C211.103 135.33 210.964 134.925 210.915 134.506C210.865 134.086 210.906 133.66 211.035 133.257C211.277 132.577 211.94 131.945 213.342 131.571C213.342 131.571 216.755 132.039 219.916 128.53C223.077 125.022 222.315 124.386 223.051 123.712C223.552 123.224 224.813 123.619 225.545 124.371C225.907 124.721 226.115 125.2 226.124 125.703C226.263 127.291 225.239 130.93 222.4 133.22Z"
            fill="#E1E3FF" />
        <path
            d="M222.401 133.22C220.227 134.995 217.54 136.026 214.736 136.159C213.577 136.297 212.402 136.137 211.323 135.692C211.104 135.33 210.965 134.925 210.915 134.506C210.866 134.086 210.906 133.66 211.035 133.257C213.212 133.709 217.773 134.293 220.762 131.67C222.993 129.719 224.648 127.195 225.546 124.371C225.907 124.721 226.115 125.2 226.125 125.703C226.263 127.291 225.24 130.93 222.401 133.22Z"
            fill="#C5CDFF" />
        <path
            d="M218.989 130.395C216.918 132.091 214.351 133.068 211.676 133.178C210.578 133.297 209.468 133.132 208.452 132.699C208.245 132.356 208.114 131.973 208.069 131.576C208.024 131.178 208.066 130.776 208.192 130.396C208.418 129.773 209.081 129.142 210.41 128.81C210.41 128.81 213.634 129.29 216.633 125.925C219.617 122.618 218.912 121.997 219.591 121.308C220.077 120.878 221.237 121.184 221.969 121.936C222.314 122.275 222.525 122.728 222.563 123.21C222.644 124.783 221.666 128.248 218.989 130.395Z"
            fill="#E1E3FF" />
        <path
            d="M218.989 130.395C216.918 132.091 214.351 133.068 211.676 133.178C210.578 133.297 209.468 133.132 208.452 132.699C208.245 132.357 208.114 131.974 208.069 131.576C208.024 131.179 208.066 130.776 208.192 130.396C210.253 130.817 214.567 131.398 217.452 128.934C219.551 127.064 221.123 124.676 222.012 122.01C222.357 122.349 222.568 122.801 222.606 123.284C222.517 124.652 222.151 125.988 221.529 127.211C220.907 128.434 220.043 129.517 218.989 130.395Z"
            fill="#C5CDFF" />
        <path
            d="M216.06 135.143C215.733 136.572 215.083 137.907 214.16 139.047C213.626 139.699 212.995 140.265 212.289 140.724C212.289 140.724 196.25 142.009 184.224 125.055C178.024 116.343 173.928 106.014 171.429 98.0936C170.073 93.8514 168.955 89.5369 168.08 85.1702C168.08 85.1702 167.858 81.0781 170.978 78.4277C172.152 77.4223 173.572 76.748 175.093 76.4744C178.187 75.8027 180.48 76.2845 182.156 77.2236C183.872 78.1969 185.237 79.6869 186.057 81.4813C186.057 81.4813 187.001 87.0674 188.741 94.1047C190.8 102.281 193.953 112.423 198.1 117.862C205.795 127.962 214.623 127.193 214.623 127.193C215.092 128.043 215.479 128.935 215.781 129.857C216.097 131.243 216.508 133.213 216.06 135.143Z"
            fill="#E1E3FF" />
        <path
            d="M188.597 93.9432C185.931 96.4041 182.521 97.9051 178.906 98.2085C176.382 98.4897 173.832 98.4214 171.327 98.0054C169.972 93.7632 168.854 89.4487 167.978 85.082C167.978 85.082 167.622 77.9758 174.949 76.3129C183.196 74.4585 185.913 81.3198 185.913 81.3198C185.913 81.3198 186.842 86.9638 188.597 93.9432Z"
            fill="#C5CDFF" />
        <path
            d="M214.116 138.973C213.583 139.626 212.952 140.192 212.246 140.651C212.246 140.651 196.207 141.936 184.18 124.982C177.981 116.27 173.884 105.941 171.385 98.0205C170.03 93.7783 168.912 89.4638 168.036 85.0972C168.036 85.0972 167.815 81.0051 170.935 78.3546C171.7 83.2107 175.188 103.121 182.873 116.073C191.683 130.874 197.739 134.025 209.043 137.509C210.884 138.057 212.608 138.575 214.116 138.973Z"
            fill="#C5CDFF" />
        <path
            d="M215.622 129.753C212.434 129.842 208.147 129.392 204.207 126.923C196.861 122.314 191.64 115.536 187.762 104.148C184.598 94.7487 182.621 81.5672 182.054 77.1357C183.77 78.109 185.136 79.599 185.956 81.3934C185.956 81.3934 186.9 86.9795 188.639 94.0168C190.698 102.194 193.851 112.335 197.999 117.775C205.693 127.875 214.522 127.105 214.522 127.105C214.978 127.948 215.347 128.835 215.622 129.753Z"
            fill="#F8FBFF" />
        <path
            d="M177.831 110.025C177.006 109.81 176.216 109.476 175.487 109.033C175.311 108.902 175.194 108.707 175.16 108.49C175.127 108.273 175.18 108.052 175.309 107.874C175.437 107.696 175.631 107.576 175.847 107.539C176.064 107.502 176.286 107.552 176.465 107.678C176.566 107.767 179.047 109.415 183.222 108.409C185.724 107.765 187.879 106.177 189.233 103.978C189.282 103.885 189.349 103.802 189.43 103.735C189.511 103.668 189.604 103.618 189.705 103.586C189.805 103.555 189.911 103.544 190.015 103.554C190.12 103.564 190.222 103.594 190.315 103.643C190.408 103.692 190.49 103.759 190.557 103.84C190.624 103.921 190.675 104.014 190.706 104.114C190.737 104.215 190.748 104.32 190.738 104.425C190.729 104.53 190.699 104.631 190.65 104.724C189.878 106.031 188.852 107.17 187.633 108.074C186.414 108.977 185.026 109.627 183.551 109.985C181.68 110.498 179.708 110.512 177.831 110.025Z"
            fill="#C5CDFF" />
        <path
            d="M185.477 125.945C185.262 125.888 185.078 125.748 184.966 125.555C184.854 125.363 184.823 125.134 184.88 124.918C184.937 124.703 185.077 124.519 185.269 124.407C185.462 124.295 185.691 124.264 185.906 124.321C185.964 124.336 189.576 125.228 192.265 123.271C195.028 121.27 195.572 117.567 195.587 117.509C195.603 117.403 195.639 117.301 195.694 117.209C195.749 117.117 195.822 117.037 195.908 116.974C195.994 116.91 196.092 116.864 196.196 116.838C196.299 116.812 196.407 116.807 196.513 116.823C196.723 116.863 196.91 116.98 197.037 117.152C197.164 117.323 197.222 117.536 197.199 117.749C197.153 117.923 196.529 122.163 193.223 124.579C189.886 127.11 185.651 125.991 185.477 125.945Z"
            fill="#C5CDFF" />
        <path
            d="M196.444 136.104C196.279 136.062 196.132 135.97 196.022 135.841C195.912 135.711 195.844 135.552 195.828 135.383C195.805 135.163 195.87 134.942 196.008 134.77C196.147 134.597 196.348 134.486 196.568 134.461C197.703 134.283 198.783 133.852 199.729 133.199C200.674 132.547 201.461 131.69 202.031 130.692C203.852 127.326 203.185 124.916 203.143 124.843C203.082 124.635 203.102 124.413 203.199 124.219C203.296 124.026 203.463 123.877 203.666 123.802C203.873 123.741 204.096 123.762 204.289 123.859C204.482 123.956 204.631 124.123 204.707 124.325C204.734 124.457 205.668 127.496 203.447 131.439C202.744 132.666 201.773 133.718 200.605 134.517C199.438 135.315 198.105 135.839 196.706 136.049C196.618 136.15 196.56 136.135 196.444 136.104Z"
            fill="#C5CDFF" />
        <path
            d="M190.899 87.105C190.622 87.6684 190.293 88.2048 189.917 88.7072C188.584 90.4648 185.811 93.2072 180.71 94.8999C172.832 97.4722 167.348 94.0374 167.348 94.0374C165.611 89.3226 165.054 84.2541 165.726 79.2745C166.384 74.6702 170.262 71.9717 174.535 71.3011C177.699 70.8341 181.066 71.4757 183.428 73.3408C188.999 77.8536 190.899 87.105 190.899 87.105Z"
            fill="#0109A1" />
        <path
            d="M190.9 87.1055C190.623 87.6689 190.295 88.2053 189.918 88.7077C189.934 88.6497 189.876 88.6344 189.891 88.5764C186.382 80.0165 182.531 77.4476 182.531 77.4476C182.531 77.4476 179.984 80.746 175.389 77.2357C172.175 74.8354 173.488 72.4518 174.594 71.317C177.759 70.8499 181.126 71.4915 183.488 73.3566C189.001 77.8541 190.9 87.1055 190.9 87.1055Z"
            fill="#141ED2" />
        <path
            d="M128.533 37.7998C128.035 37.5739 127.47 37.545 126.952 37.719C126.434 37.893 126.001 38.257 125.741 38.7375C124.258 41.4786 122.914 44.2921 121.714 47.1676C120.78 49.5271 120.127 51.5266 119.701 52.9034C119.557 53.391 119.591 53.9143 119.798 54.3787C120.006 54.8432 120.372 55.2182 120.832 55.436C121.092 55.5509 121.373 55.6113 121.658 55.6134C121.942 55.6156 122.224 55.5594 122.486 55.4483C122.748 55.3373 122.984 55.1737 123.18 54.9678C123.377 54.7619 123.529 54.5179 123.627 54.251C124.484 51.7254 125.509 49.2597 126.694 46.8704C128.056 44.0654 129.014 42.0846 129.672 40.7691C129.895 40.2222 129.902 39.6105 129.691 39.0588C129.479 38.507 129.065 38.0568 128.533 37.7998Z"
            fill="#0109A1" />
        <path
            d="M116.859 41.3549C116.991 41.0981 117.18 40.8744 117.41 40.7006C117.641 40.5267 117.908 40.4071 118.191 40.3508C118.475 40.2944 118.767 40.3027 119.047 40.375C119.326 40.4474 119.586 40.5818 119.806 40.7685C121.347 41.9823 123.608 43.7588 125.814 45.2726C128.079 46.8017 130.169 48.2848 131.466 49.248C131.894 49.5514 132.196 50.0021 132.312 50.5138C132.429 51.0256 132.353 51.5624 132.098 52.0214C131.96 52.2688 131.773 52.4858 131.55 52.6595C131.326 52.8332 131.069 52.96 130.795 53.0324C130.521 53.1048 130.236 53.1212 129.955 53.0808C129.675 53.0404 129.405 52.9439 129.163 52.7971C126.607 51.2862 124.146 49.6204 121.793 47.8091C120.124 46.5286 118.543 45.1364 117.061 43.6422C116.809 43.3218 116.656 42.9348 116.62 42.5287C116.584 42.1225 116.667 41.7146 116.859 41.3549Z"
            fill="#0109A1" />
        <path
            d="M157.212 30.2369C156.558 29.9567 155.822 29.9323 155.151 30.1686C154.479 30.4048 153.921 30.8845 153.586 31.5127C152.182 34.2443 149.966 38.8714 148.549 42.5923C147.416 45.7059 146.552 48.2701 146.077 50.0682C145.885 50.6933 145.934 51.3676 146.215 51.9583C146.495 52.5491 146.986 53.0137 147.591 53.2608C147.93 53.4082 148.295 53.4835 148.664 53.482C149.034 53.4805 149.399 53.4022 149.736 53.2521C150.073 53.1019 150.376 52.8832 150.624 52.6099C150.872 52.3365 151.061 52.0145 151.178 51.6643C151.907 49.3748 153.19 45.9285 154.901 42.0369C156.566 38.3192 157.808 35.731 158.573 34.0095C158.746 33.6749 158.847 33.3084 158.871 32.9328C158.896 32.5572 158.842 32.1807 158.715 31.8267C158.587 31.4726 158.387 31.1487 158.129 30.8752C157.87 30.6017 157.558 30.3844 157.212 30.2369Z"
            fill="#0109A1" />
        <path
            d="M142.129 35.1866C142.303 34.8571 142.546 34.5693 142.842 34.3432C143.138 34.1171 143.48 33.9581 143.844 33.8771C144.208 33.7961 144.585 33.7952 144.949 33.8743C145.313 33.9535 145.655 34.1108 145.953 34.3354C147.97 35.8612 150.923 38.0689 153.822 40.014C156.779 41.9744 159.52 43.8154 161.25 45.0173C161.814 45.3987 162.214 45.9775 162.372 46.6396C162.53 47.3016 162.435 47.9989 162.104 48.594C161.928 48.9203 161.688 49.2082 161.4 49.4407C161.111 49.6733 160.778 49.8457 160.422 49.9481C160.065 50.0504 159.692 50.0805 159.324 50.0366C158.955 49.9927 158.599 49.8757 158.277 49.6924C154.935 47.8097 151.716 45.7155 148.64 43.4227C146.44 41.8318 144.376 40.0617 142.468 38.1306C142.14 37.7214 141.935 37.2281 141.875 36.7074C141.815 36.1866 141.903 35.6595 142.129 35.1866Z"
            fill="#0109A1" />
        <path d="M105.22 35.6106L104.565 38.1936L80.5314 35.3385L81.9572 25.8127L105.22 35.6106Z"
            fill="#FEC272" />
        <path d="M107.207 27.1075L105.713 30.3789L76.4309 15.4639L82.1836 6.75711L107.207 27.1075Z"
            fill="#FEC272" />
        <path fill-rule="evenodd" clip-rule="evenodd"
            d="M292.196 20.9455C293.939 21.5496 295.581 19.9777 297.083 18.9067C299.407 17.2496 302.439 16.623 305.23 17.2231C305.693 17.3227 306.178 17.4721 306.483 17.8344C306.762 18.1657 306.841 18.6176 306.886 19.0483C307.161 21.6845 306.501 24.4087 305.052 26.6276C304.347 27.7071 303.463 28.6683 302.832 29.793C302.202 30.9176 301.841 32.2917 302.291 33.5003C304.962 40.6861 303.85 49.1616 299.416 55.4153C294.982 61.6689 287.351 65.5224 279.687 65.3791C275.767 65.3058 271.926 64.2595 268.233 62.9438C266.621 62.3697 264.85 61.7399 263.25 62.3461C260.332 63.4522 257.259 64.1507 254.149 64.4149C253.377 64.4805 252.57 64.5142 251.858 64.2095C250.792 63.7534 250.149 62.5975 250.027 61.4446C249.904 60.2916 250.223 59.1375 250.625 58.0502C251.84 54.7704 255.61 49.6468 257.893 48.4665C257.708 44.4837 257.728 40.4541 258.589 36.5611C259.45 32.6681 261.208 28.8905 264.09 26.1359C265.281 24.9982 266.644 24.0512 268.071 23.2295C275.29 19.0733 284.326 18.2178 292.196 20.9455ZM281.203 20.6223C275.683 20.7515 270.31 22.9689 265.995 26.4138C264.728 27.4253 263.537 28.549 262.586 29.862C261.837 30.897 261.244 32.0391 260.748 33.2171C257.809 40.2076 258.48 48.6064 262.492 55.0415C262.579 55.1819 262.68 55.3306 262.836 55.3851C263.028 55.4523 263.236 55.3543 263.416 55.2584C276.015 48.5439 287.23 39.2444 296.161 28.1055C296.374 27.8403 296.598 27.5322 296.552 27.1953C296.517 26.9425 296.337 26.7373 296.161 26.5527C292.35 22.557 286.724 20.493 281.203 20.6223ZM288.92 62.3523C294.905 59.5428 299.45 53.9908 301.394 47.6718C301.834 46.2409 302.151 44.7618 302.182 43.265C302.208 42.0063 302.032 40.7532 301.857 39.5065C301.603 37.699 301.349 35.8916 301.095 34.0841C301.028 33.6049 300.566 32.9724 300.229 33.3194C290.865 42.9556 280.641 51.7548 269.717 59.5779C269.353 59.8382 268.953 60.1601 268.933 60.6068C268.911 61.1238 269.404 61.4988 269.852 61.7574C275.58 65.06 282.936 65.1619 288.92 62.3523ZM252.006 61.617C252.442 62.3153 253.385 62.4584 254.208 62.4811C258.523 62.6005 262.793 61.3359 266.654 59.4046C270.515 57.4733 274.01 54.8899 277.406 52.2244C281.936 48.6693 286.33 44.9434 290.613 41.0943C295.917 36.3272 301.128 31.2709 304.61 25.0476C305.284 23.8438 305.906 22.5238 305.8 21.1484C305.695 19.773 304.598 18.3844 303.219 18.4382C300.294 18.5523 297.418 19.6769 295.192 21.5773C294.749 21.9552 295.062 22.7598 295.607 22.9643C296.152 23.1689 296.759 22.9656 297.292 22.7306C297.825 22.4955 298.379 22.2206 298.958 22.2849C299.842 22.3832 300.469 23.2881 300.522 24.1759C300.575 25.0637 300.182 25.9169 299.72 26.6765C298.863 28.0822 297.745 29.3075 296.616 30.5045C286.573 41.1439 274.988 50.3253 262.337 57.6723C261.197 58.3339 260.044 58.9831 258.818 59.4651C258.175 59.718 257.438 59.9209 256.81 59.6318C255.781 59.1578 255.698 57.7126 256.007 56.6223C256.471 54.9852 257.472 53.5053 258.82 52.4666C258.565 51.7475 258.31 51.0284 258.054 50.3092C254.728 52.4341 252.393 56.0484 251.824 59.9545C251.742 60.5182 251.705 61.1337 252.006 61.617ZM261.465 56.6819C261.489 56.6077 261.446 56.5304 261.404 56.4645C260.974 55.7817 260.545 55.0989 260.115 54.416C259.92 54.1071 259.544 53.7572 259.253 53.9768C258.202 54.7679 257.45 55.9463 257.175 57.2323C257.121 57.4861 257.089 57.7693 257.228 57.989C257.485 58.3977 258.099 58.3067 258.553 58.1438C259.522 57.7967 260.456 57.3502 261.334 56.8138C261.388 56.7807 261.446 56.7423 261.465 56.6819ZM298.85 24.1777C298.807 24.0004 298.596 23.9233 298.413 23.9154C297.86 23.8912 297.281 24.3464 297.316 24.8996C297.351 25.4527 298.173 25.801 298.517 25.3661C298.621 25.2348 298.665 25.0674 298.706 24.9052C298.747 24.7446 298.788 24.584 298.829 24.4233C298.849 24.3429 298.87 24.2584 298.85 24.1777Z"
            fill="#0109A1" />
        <path
            d="M266.016 25.3046C276.931 17.2371 289.151 20.3613 293.897 22.9318L298.049 27.0843C297.653 27.282 296.507 28.3893 295.083 31.2366C293.303 34.7958 274.321 50.8122 262.457 56.1509C256.525 47.253 257.118 33.6094 266.016 25.3046Z"
            fill="#0109A1" />
        <path
            d="M293.09 61.9332C281.336 68.721 269.546 64.2414 265.119 61.1531L261.461 56.5596C261.876 56.4077 263.14 55.4365 264.875 52.7675C267.044 49.4312 287.708 35.653 300.098 31.6835C304.991 41.1925 302.866 54.6827 293.09 61.9332Z"
            fill="#141ED2" />
        <path
            d="M305.76 18.7791C302.439 15.9318 296.862 19.9655 294.49 22.3383C294.687 22.7339 295.439 23.6436 296.862 24.1182C302.201 22.3386 299.235 27.0842 290.931 35.3889C282.626 43.6937 261.864 57.3373 257.711 59.71C254.864 58.7609 257.711 54.569 259.491 52.5917L257.711 49.0325C256.327 50.4166 253.322 53.6594 252.373 55.5577C251.186 57.9305 248.813 63.8624 254.745 63.2692C269.575 62.676 283.219 48.4393 290.931 41.3209C298.642 34.2025 309.913 22.3383 305.76 18.7791Z"
            fill="#FEC272" />
    </g>
    <defs>
        <clipPath id="clip0_4533_57841">
            <rect width="400" height="206" fill="white" />
        </clipPath>
    </defs>
</svg>