<svg width="20" height="20" viewBox="0 0 20 20" fill="none" xmlns="http://www.w3.org/2000/svg">
<path d="M8.33329 8.12501C8.79353 8.12501 9.16663 8.4981 9.16663 8.95834V13.9583C9.16663 14.4186 8.79353 14.7917 8.33329 14.7917C7.87306 14.7917 7.49996 14.4186 7.49996 13.9583V8.95834C7.49996 8.4981 7.87306 8.12501 8.33329 8.12501Z" fill="#5E6371"/>
<path d="M12.5 8.95834C12.5 8.4981 12.1269 8.12501 11.6666 8.12501C11.2064 8.12501 10.8333 8.4981 10.8333 8.95834V13.9583C10.8333 14.4186 11.2064 14.7917 11.6666 14.7917C12.1269 14.7917 12.5 14.4186 12.5 13.9583V8.95834Z" fill="#5E6371"/>
<path fill-rule="evenodd" clip-rule="evenodd" d="M15 5.00001V4.16667C15 2.78596 13.8807 1.66667 12.5 1.66667H7.49996C6.11925 1.66667 4.99996 2.78596 4.99996 4.16667V5.00001H3.74996C3.28972 5.00001 2.91663 5.3731 2.91663 5.83334C2.91663 6.29358 3.28972 6.66667 3.74996 6.66667H4.16663V15.8333C4.16663 17.2141 5.28591 18.3333 6.66663 18.3333H13.3333C14.714 18.3333 15.8333 17.2141 15.8333 15.8333V6.66667H16.25C16.7102 6.66667 17.0833 6.29358 17.0833 5.83334C17.0833 5.3731 16.7102 5.00001 16.25 5.00001H15ZM12.5 3.33334H7.49996C7.03972 3.33334 6.66663 3.70643 6.66663 4.16667V5.00001H13.3333V4.16667C13.3333 3.70643 12.9602 3.33334 12.5 3.33334ZM14.1666 6.66667H5.83329V15.8333C5.83329 16.2936 6.20639 16.6667 6.66663 16.6667H13.3333C13.7935 16.6667 14.1666 16.2936 14.1666 15.8333V6.66667Z" fill="#5E6371"/>
</svg>
