<svg width="20" height="20" viewBox="0 0 20 20" fill="none" xmlns="http://www.w3.org/2000/svg">
    <path
        d="M4.99967 6.66676H12.4997L12.8333 8.00013C12.5 7.5001 12.4861 7.98624 12 7.50013C11.5139 7.01402 10.6944 8.00013 10 8.00013C9.30556 8.00013 8.98611 7.01402 8.5 7.50013C8.01389 7.98624 7.83333 7.30568 7.83333 8.00013H6.16667C6.16667 6.84735 6.1875 8.31262 7 7.50012C7.8125 6.68762 9.17729 7.15631 10.3301 7.15631C11.4828 7.15631 10 6.5001 14.1663 6.66676C18.3327 6.83342 14 8.0001 14.5 8.0001L14.1663 6.66676H14.9997C15.458 6.66676 15.8504 6.82995 16.1768 7.15634C16.5031 7.48273 16.6663 7.87509 16.6663 8.33343V16.6668C16.6663 17.1251 16.5031 17.5175 16.1768 17.8438C15.8504 18.1702 15.458 18.3334 14.9997 18.3334H4.99967C4.54134 18.3334 4.14898 18.1702 3.82259 17.8438C3.4962 17.5175 3.33301 17.1251 3.33301 16.6668V8.33343C3.33301 7.87509 3.4962 7.48273 3.82259 7.15634C4.14898 6.82995 4.54134 6.66676 4.99967 6.66676ZM4.99967 16.6668H14.9997V8.33343H4.99967V16.6668ZM9.99967 14.1668C10.458 14.1668 10.8504 14.0036 11.1768 13.6772C11.5031 13.3508 11.6663 12.9584 11.6663 12.5001C11.6663 12.0418 11.5031 11.6494 11.1768 11.323C10.8504 10.9966 10.458 10.8334 9.99967 10.8334C9.54134 10.8334 9.14898 10.9966 8.82259 11.323C8.4962 11.6494 8.33301 12.0418 8.33301 12.5001C8.33301 12.9584 8.4962 13.3508 8.82259 13.6772C9.14898 14.0036 9.54134 14.1668 9.99967 14.1668Z"
        fill="#5E6371" />
    <path d="M11 7V5.5C11 3.567 12.567 2 14.5 2V2C16.433 2 18 3.567 18 5.5V6" stroke="#5E6371"
        stroke-width="1.8" />
</svg>