<svg width="25" height="25" viewBox="0 0 25 25" fill="none" xmlns="http://www.w3.org/2000/svg">
<g clip-path="url(#clip0_336_94426)">
<path d="M7.49996 18.5C6.25223 18.5 5.05561 18.0259 4.17334 17.182C3.29107 16.3381 2.79541 15.1935 2.79541 14C2.79541 12.8065 3.29107 11.6619 4.17334 10.818C5.05561 9.97411 6.25223 9.5 7.49996 9.5C7.79464 8.18718 8.65672 7.03348 9.89654 6.29271C10.5104 5.92592 11.1986 5.67155 11.9217 5.54411C12.6449 5.41668 13.3888 5.41868 14.1111 5.55C14.8333 5.68132 15.5198 5.93939 16.1312 6.30948C16.7427 6.67957 17.2672 7.15442 17.6747 7.70693C18.0823 8.25944 18.3649 8.87878 18.5065 9.5296C18.6481 10.1804 18.6459 10.85 18.5 11.5H19.5C20.4282 11.5 21.3185 11.8687 21.9748 12.5251C22.6312 13.1815 23 14.0717 23 15C23 15.9283 22.6312 16.8185 21.9748 17.4749C21.3185 18.1313 20.4282 18.5 19.5 18.5H18.5" stroke="#484848" stroke-width="2" stroke-linecap="round" stroke-linejoin="round"/>
<path d="M9.5 15.5L12.5 12.5L15.5 15.5" stroke="#484848" stroke-width="2" stroke-linecap="round" stroke-linejoin="round"/>
<path d="M12.5 12.5V21.5" stroke="#484848" stroke-width="2" stroke-linecap="round" stroke-linejoin="round"/>
</g>
<defs>
<clipPath id="clip0_336_94426">
<rect width="24" height="24" fill="white" transform="translate(0.5 0.5)"/>
</clipPath>
</defs>
</svg>
