<svg width="20" height="21" viewBox="0 0 20 21" fill="none" xmlns="http://www.w3.org/2000/svg">
<path fill-rule="evenodd" clip-rule="evenodd" d="M10 9.3667C12.0711 9.3667 13.75 7.68777 13.75 5.6167C13.75 3.54563 12.0711 1.8667 10 1.8667C7.92893 1.8667 6.25 3.54563 6.25 5.6167C6.25 7.68777 7.92893 9.3667 10 9.3667ZM10 7.70003C11.1506 7.70003 12.0833 6.76729 12.0833 5.6167C12.0833 4.46611 11.1506 3.53337 10 3.53337C8.84941 3.53337 7.91667 4.46611 7.91667 5.6167C7.91667 6.76729 8.84941 7.70003 10 7.70003Z" fill="#667085"/>
<path d="M11.7308 11.8667C12.5643 11.8667 13.3398 12.1153 13.9871 12.5424C14.3713 12.7958 14.8955 12.8045 15.221 12.4791C15.5464 12.1536 15.5494 11.6203 15.1807 11.3448C14.2185 10.6258 13.0244 10.2 11.7308 10.2H8.26923C5.08297 10.2 2.5 12.783 2.5 15.9693C2.5 16.9251 3.27489 17.7 4.23077 17.7H10C10.4602 17.7 10.8333 17.3269 10.8333 16.8667C10.8333 16.4065 10.4602 16.0334 10 16.0334H4.23077C4.19537 16.0334 4.16667 16.0047 4.16667 15.9693C4.16667 13.7035 6.00345 11.8667 8.26923 11.8667H11.7308Z" fill="#667085"/>
<path d="M18.3346 13.2498C18.6382 12.9039 18.604 12.3774 18.2581 12.0738C17.9122 11.7701 17.3857 11.8044 17.0821 12.1503L14.3141 15.3036L13.1021 14.3396C12.7419 14.053 12.2177 14.1128 11.9312 14.4729C11.6447 14.8331 11.7044 15.3574 12.0646 15.6439L14.2085 17.3493C14.3824 17.4877 14.6344 17.4652 14.781 17.2981L18.3346 13.2498Z" fill="#667085"/>
</svg>
