<svg width="8" height="6" viewBox="0 0 8 6" fill="none" xmlns="http://www.w3.org/2000/svg">
<path d="M3.57143 5.5C3.4195 5.49929 3.26965 5.46701 3.13274 5.40551C2.99584 5.34401 2.87531 5.25483 2.77992 5.14444L0.274451 2.31111C0.128048 2.14054 0.0359179 1.935 0.00856079 1.71793C-0.0187963 1.50085 0.0197195 1.28097 0.119719 1.08333C0.200822 0.91157 0.333174 0.76523 0.500966 0.66179C0.668759 0.558351 0.8649 0.502185 1.06596 0.5H6.07689C6.27796 0.502185 6.4741 0.558351 6.64189 0.66179C6.80968 0.76523 6.94203 0.91157 7.02314 1.08333C7.12314 1.28097 7.16165 1.50085 7.1343 1.71793C7.10694 1.935 7.01481 2.14054 6.86841 2.31111L4.36294 5.14444C4.26754 5.25483 4.14702 5.34401 4.01012 5.40551C3.87321 5.46701 3.72336 5.49929 3.57143 5.5Z" fill="#212121"/>
</svg>
